<?xml version="1.0" encoding="utf-8"?>
<!-- Generator: Adobe Illustrator 22.0.0, SVG Export Plug-In . SVG Version: 6.00 Build 0)  -->
<svg version="1.1" xmlns="http://www.w3.org/2000/svg" xmlns:xlink="http://www.w3.org/1999/xlink" x="0px" y="0px"
	 viewBox="0 0 691.9 478.8" style="enable-background:new 0 0 691.9 478.8;" xml:space="preserve">
<style type="text/css">
	.st0{fill:url(#SVGID_1_);}
	.st1{fill:url(#SVGID_2_);}
	.st2{fill:#F7F7F7;}
	.st3{fill:url(#SVGID_3_);}
	.st4{fill:url(#SVGID_4_);}
	.st5{fill:#FFFFFF;stroke:#D9D9D9;stroke-miterlimit:10;}
	.st6{fill:#F2F2F2;}
	.st7{fill:#23A497;}
	.st8{fill:#3D200D;}
	.st9{fill:#7B2214;}
	.st10{fill:#764021;}
	.st11{fill:#FFA466;}
	.st12{fill:#F58E4B;}
	.st13{opacity:0.36;}
	.st14{fill:#ED8C73;}
	.st15{fill:#006788;}
	.st16{fill:#D6681C;}
	.st17{fill:#A23050;}
	.st18{fill:#E6437E;}
	.st19{fill:#0F0C0B;}
	.st20{fill:#B02506;}
	.st21{fill:#FDBD73;}
	.st22{fill:#F3B500;}
	.st23{fill:#FFC999;}
	.st24{fill:#D13055;}
	.st25{fill:#E6792E;}
	.st26{fill:#F2A96D;}
	.st27{fill:#B46A06;}
	.st28{fill:#F3CA00;}
	.st29{opacity:0.14;}
	.st30{fill:#903616;}
	.st31{fill:#E89252;}
	.st32{opacity:0.4;}
	.st33{fill:#D46A22;}
	.st34{fill:#D16E2A;}
	.st35{fill:#005C52;}
	.st36{fill:#C1622D;}
	.st37{fill:#341E08;}
	.st38{fill:#75BE8C;}
	.st39{fill:#D67A64;}
	.st40{fill:#994308;}
	.st41{opacity:0.3;}
	.st42{fill:#EAEEDE;}
	.st43{fill:#FDA83B;}
	.st44{fill:#FFFFFF;stroke:#CCCCCC;stroke-width:1.3776;stroke-linecap:round;stroke-linejoin:round;stroke-miterlimit:10;}
	.st45{fill:#895837;}
	.st46{fill:#F3C100;}
	.st47{fill:#666666;}
	.st48{fill:none;}
	.st49{fill-rule:evenodd;clip-rule:evenodd;fill:#7D7D7D;}
	.st50{fill:#FFFFFF;}
	.st51{fill:#24B1A3;}
	.st52{fill-rule:evenodd;clip-rule:evenodd;fill:#1D1E1C;}
	.st53{clip-path:url(#XMLID_2116_);fill:url(#XMLID_2117_);}
	.st54{fill-rule:evenodd;clip-rule:evenodd;fill:#F1BB17;}
	.st55{clip-path:url(#XMLID_2118_);fill:url(#XMLID_2119_);}
	.st56{clip-path:url(#XMLID_2120_);fill:url(#XMLID_2121_);}
	.st57{clip-path:url(#XMLID_2122_);fill:url(#XMLID_2123_);}
	.st58{clip-path:url(#XMLID_2124_);fill:url(#XMLID_2125_);}
	.st59{clip-path:url(#XMLID_2126_);fill:url(#XMLID_2127_);}
	.st60{clip-path:url(#XMLID_2128_);fill:url(#XMLID_2129_);}
	.st61{clip-path:url(#XMLID_2130_);fill:url(#XMLID_2131_);}
	.st62{clip-path:url(#XMLID_2132_);fill:url(#XMLID_2133_);}
	.st63{clip-path:url(#XMLID_2134_);fill:url(#XMLID_2135_);}
	.st64{clip-path:url(#XMLID_2136_);fill:url(#XMLID_2137_);}
	.st65{clip-path:url(#XMLID_2138_);fill:url(#XMLID_2139_);}
	.st66{clip-path:url(#XMLID_2140_);fill:url(#XMLID_2141_);}
	.st67{clip-path:url(#XMLID_2142_);fill:url(#XMLID_2143_);}
	.st68{clip-path:url(#XMLID_2144_);fill:url(#XMLID_2145_);}
	.st69{clip-path:url(#XMLID_2146_);fill:url(#XMLID_2147_);}
	.st70{clip-path:url(#XMLID_2148_);fill:url(#XMLID_2149_);}
	.st71{clip-path:url(#XMLID_2150_);fill:url(#XMLID_2151_);}
	.st72{clip-path:url(#XMLID_2152_);fill:url(#XMLID_2153_);}
	.st73{clip-path:url(#XMLID_2154_);fill:url(#XMLID_2155_);}
	.st74{clip-path:url(#XMLID_2156_);fill:url(#XMLID_2157_);}
	.st75{clip-path:url(#XMLID_2158_);fill:url(#XMLID_2159_);}
	.st76{clip-path:url(#XMLID_2160_);fill:url(#XMLID_2161_);}
	.st77{fill-rule:evenodd;clip-rule:evenodd;fill:#F9CEBD;}
	.st78{clip-path:url(#XMLID_2162_);fill:url(#XMLID_2163_);}
	.st79{fill-rule:evenodd;clip-rule:evenodd;fill:#3C3C6C;}
	.st80{clip-path:url(#XMLID_2164_);fill:url(#XMLID_2165_);}
	.st81{clip-path:url(#XMLID_2166_);fill:url(#XMLID_2167_);}
	.st82{clip-path:url(#XMLID_2168_);fill:url(#XMLID_2169_);}
	.st83{clip-path:url(#XMLID_2170_);fill:url(#XMLID_2171_);}
	.st84{clip-path:url(#XMLID_2172_);fill:url(#XMLID_2173_);}
	.st85{clip-path:url(#XMLID_2174_);fill:url(#XMLID_2175_);}
	.st86{clip-path:url(#XMLID_2176_);fill:url(#XMLID_2177_);}
	.st87{clip-path:url(#XMLID_2178_);fill:url(#XMLID_2179_);}
	.st88{clip-path:url(#XMLID_2180_);fill:url(#XMLID_2181_);}
	.st89{clip-path:url(#XMLID_2182_);fill:url(#XMLID_2183_);}
	.st90{clip-path:url(#XMLID_2184_);fill:url(#XMLID_2185_);}
	.st91{clip-path:url(#XMLID_2186_);fill:url(#XMLID_2187_);}
	.st92{clip-path:url(#XMLID_2188_);fill:url(#XMLID_2189_);}
	.st93{clip-path:url(#XMLID_2190_);fill:url(#XMLID_2191_);}
	.st94{clip-path:url(#XMLID_2192_);fill:url(#XMLID_2193_);}
	.st95{clip-path:url(#XMLID_2194_);fill:url(#XMLID_2195_);}
	.st96{clip-path:url(#XMLID_2196_);fill:url(#XMLID_2197_);}
	.st97{clip-path:url(#XMLID_2198_);fill:url(#XMLID_2199_);}
	.st98{clip-path:url(#XMLID_2200_);fill:url(#XMLID_2201_);}
	.st99{clip-path:url(#XMLID_2202_);fill:url(#XMLID_2203_);}
	.st100{clip-path:url(#XMLID_2204_);fill:url(#XMLID_2205_);}
	.st101{clip-path:url(#XMLID_2206_);fill:url(#XMLID_2207_);}
	.st102{clip-path:url(#XMLID_2208_);fill:url(#XMLID_2209_);}
	.st103{clip-path:url(#XMLID_2210_);fill:url(#XMLID_2211_);}
	.st104{clip-path:url(#XMLID_2212_);fill:url(#XMLID_2213_);}
	.st105{clip-path:url(#XMLID_2214_);fill:url(#XMLID_2215_);}
	.st106{clip-path:url(#XMLID_2216_);fill:url(#XMLID_2217_);}
	.st107{clip-path:url(#XMLID_2218_);fill:url(#XMLID_2219_);}
	.st108{clip-path:url(#XMLID_2220_);fill:url(#XMLID_2221_);}
	.st109{clip-path:url(#XMLID_2222_);fill:url(#XMLID_2223_);}
	.st110{clip-path:url(#XMLID_2224_);fill:url(#XMLID_2225_);}
	.st111{clip-path:url(#XMLID_2226_);fill:url(#XMLID_2227_);}
	.st112{clip-path:url(#XMLID_2228_);fill:url(#XMLID_2229_);}
	.st113{clip-path:url(#XMLID_2230_);fill:url(#XMLID_2231_);}
	.st114{clip-path:url(#XMLID_2232_);fill:url(#XMLID_2233_);}
	.st115{clip-path:url(#XMLID_2234_);fill:url(#XMLID_2235_);}
	.st116{fill-rule:evenodd;clip-rule:evenodd;fill:#FFFFFF;}
	.st117{clip-path:url(#XMLID_2236_);fill:url(#XMLID_2237_);}
	.st118{clip-path:url(#XMLID_2238_);fill:url(#XMLID_2239_);}
	.st119{clip-path:url(#XMLID_2240_);fill:url(#XMLID_2241_);}
	.st120{clip-path:url(#XMLID_2242_);fill:url(#XMLID_2243_);}
	.st121{clip-path:url(#XMLID_2244_);fill:url(#XMLID_2245_);}
	.st122{clip-path:url(#XMLID_2246_);fill:url(#XMLID_2247_);}
	.st123{clip-path:url(#XMLID_2248_);fill:url(#XMLID_2249_);}
	.st124{clip-path:url(#XMLID_2250_);fill:url(#XMLID_2251_);}
	.st125{clip-path:url(#XMLID_2252_);fill:url(#XMLID_2253_);}
	.st126{clip-path:url(#XMLID_2254_);fill:url(#XMLID_2255_);}
	.st127{clip-path:url(#XMLID_2256_);fill:url(#XMLID_2257_);}
	.st128{clip-path:url(#XMLID_2258_);fill:url(#XMLID_2259_);}
	.st129{clip-path:url(#XMLID_2260_);fill:url(#XMLID_2261_);}
	.st130{clip-path:url(#XMLID_2262_);fill:url(#XMLID_2263_);}
	.st131{clip-path:url(#XMLID_2264_);fill:url(#XMLID_2265_);}
	.st132{clip-path:url(#XMLID_2266_);fill:url(#XMLID_2267_);}
	.st133{clip-path:url(#XMLID_2268_);fill:url(#XMLID_2269_);}
	.st134{clip-path:url(#XMLID_2270_);fill:url(#XMLID_2271_);}
	.st135{clip-path:url(#XMLID_2272_);fill:url(#XMLID_2273_);}
	.st136{clip-path:url(#XMLID_2274_);fill:url(#XMLID_2275_);}
	.st137{clip-path:url(#XMLID_2276_);fill:url(#XMLID_2277_);}
	.st138{clip-path:url(#XMLID_2278_);fill:url(#XMLID_2279_);}
	.st139{clip-path:url(#XMLID_2280_);fill:url(#XMLID_2281_);}
	.st140{clip-path:url(#XMLID_2282_);fill:url(#XMLID_2283_);}
	.st141{clip-path:url(#XMLID_2284_);fill:url(#XMLID_2285_);}
	.st142{clip-path:url(#XMLID_2286_);fill:url(#XMLID_2287_);}
	.st143{clip-path:url(#XMLID_2288_);fill:url(#XMLID_2289_);}
	.st144{clip-path:url(#XMLID_2290_);fill:url(#XMLID_2291_);}
	.st145{clip-path:url(#XMLID_2292_);fill:url(#XMLID_2293_);}
	.st146{clip-path:url(#XMLID_2294_);fill:url(#XMLID_2295_);}
	.st147{clip-path:url(#XMLID_2296_);fill:url(#XMLID_2297_);}
	.st148{clip-path:url(#XMLID_2298_);fill:url(#XMLID_2299_);}
	.st149{clip-path:url(#XMLID_2300_);fill:url(#XMLID_2301_);}
	.st150{clip-path:url(#XMLID_2302_);fill:url(#XMLID_2303_);}
	.st151{clip-path:url(#XMLID_2304_);fill:url(#XMLID_2305_);}
	.st152{clip-path:url(#XMLID_2306_);fill:url(#XMLID_2307_);}
	.st153{clip-path:url(#XMLID_2308_);fill:url(#XMLID_2309_);}
	.st154{clip-path:url(#XMLID_2310_);fill:url(#XMLID_2311_);}
	.st155{clip-path:url(#XMLID_2312_);fill:url(#XMLID_2313_);}
	.st156{clip-path:url(#XMLID_2314_);fill:url(#XMLID_2315_);}
	.st157{clip-path:url(#XMLID_2316_);fill:url(#XMLID_2317_);}
	.st158{clip-path:url(#XMLID_2318_);fill:url(#XMLID_2319_);}
	.st159{clip-path:url(#XMLID_2320_);fill:url(#XMLID_2321_);}
	.st160{clip-path:url(#XMLID_2322_);fill:url(#XMLID_2323_);}
	.st161{clip-path:url(#XMLID_2324_);fill:url(#XMLID_2325_);}
	.st162{clip-path:url(#XMLID_2326_);fill:url(#XMLID_2327_);}
	.st163{clip-path:url(#XMLID_2328_);fill:url(#XMLID_2329_);}
	.st164{clip-path:url(#XMLID_2330_);fill:url(#XMLID_2331_);}
	.st165{clip-path:url(#XMLID_2332_);fill:url(#XMLID_2333_);}
	.st166{clip-path:url(#XMLID_2334_);fill:url(#XMLID_2335_);}
	.st167{clip-path:url(#XMLID_2336_);fill:url(#XMLID_2337_);}
	.st168{clip-path:url(#XMLID_2338_);fill:url(#XMLID_2339_);}
	.st169{clip-path:url(#XMLID_2340_);fill:url(#XMLID_2341_);}
	.st170{clip-path:url(#XMLID_2342_);fill:url(#XMLID_2343_);}
	.st171{clip-path:url(#XMLID_2344_);fill:url(#XMLID_2345_);}
	.st172{clip-path:url(#XMLID_2346_);fill:url(#XMLID_2347_);}
	.st173{clip-path:url(#XMLID_2348_);fill:url(#XMLID_2349_);}
	.st174{clip-path:url(#XMLID_2350_);fill:url(#XMLID_2351_);}
	.st175{clip-path:url(#XMLID_2352_);fill:url(#XMLID_2353_);}
	.st176{clip-path:url(#XMLID_2354_);fill:url(#XMLID_2355_);}
	.st177{clip-path:url(#XMLID_2356_);fill:url(#XMLID_2357_);}
	.st178{clip-path:url(#XMLID_2358_);fill:url(#XMLID_2359_);}
	.st179{clip-path:url(#XMLID_2360_);fill:url(#XMLID_2361_);}
	.st180{clip-path:url(#XMLID_2362_);fill:url(#XMLID_2363_);}
	.st181{clip-path:url(#XMLID_2364_);fill:url(#XMLID_2365_);}
	.st182{clip-path:url(#XMLID_2366_);fill:url(#XMLID_2367_);}
	.st183{clip-path:url(#XMLID_2368_);fill:url(#XMLID_2369_);}
	.st184{clip-path:url(#XMLID_2370_);fill:url(#XMLID_2371_);}
	.st185{clip-path:url(#XMLID_2372_);fill:url(#XMLID_2373_);}
	.st186{clip-path:url(#XMLID_2374_);fill:url(#XMLID_2375_);}
	.st187{clip-path:url(#XMLID_2376_);fill:url(#XMLID_2377_);}
	.st188{clip-path:url(#XMLID_2378_);fill:url(#XMLID_2379_);}
	.st189{clip-path:url(#XMLID_2380_);fill:url(#XMLID_2381_);}
	.st190{clip-path:url(#XMLID_2382_);fill:url(#XMLID_2383_);}
	.st191{clip-path:url(#XMLID_2384_);fill:url(#XMLID_2385_);}
	.st192{clip-path:url(#XMLID_2386_);fill:url(#XMLID_2387_);}
	.st193{clip-path:url(#XMLID_2388_);fill:url(#XMLID_2389_);}
	.st194{clip-path:url(#XMLID_2390_);fill:url(#XMLID_2391_);}
	.st195{clip-path:url(#XMLID_2392_);fill:url(#XMLID_2393_);}
	.st196{clip-path:url(#XMLID_2394_);fill:url(#XMLID_2395_);}
	.st197{clip-path:url(#XMLID_2396_);fill:url(#XMLID_2397_);}
	.st198{clip-path:url(#XMLID_2398_);fill:url(#XMLID_2399_);}
	.st199{clip-path:url(#XMLID_2400_);fill:url(#XMLID_2401_);}
	.st200{clip-path:url(#XMLID_2402_);fill:url(#XMLID_2403_);}
	.st201{clip-path:url(#XMLID_2404_);fill:url(#XMLID_2405_);}
	.st202{clip-path:url(#XMLID_2406_);fill:url(#XMLID_2407_);}
	.st203{clip-path:url(#XMLID_2408_);fill:url(#XMLID_2409_);}
	.st204{clip-path:url(#XMLID_2410_);fill:url(#XMLID_2411_);}
	.st205{clip-path:url(#XMLID_2412_);fill:url(#XMLID_2413_);}
	.st206{clip-path:url(#XMLID_2414_);fill:url(#XMLID_2415_);}
	.st207{clip-path:url(#XMLID_2416_);fill:url(#XMLID_2417_);}
	.st208{clip-path:url(#XMLID_2418_);fill:url(#XMLID_2419_);}
	.st209{clip-path:url(#XMLID_2420_);fill:url(#XMLID_2421_);}
	.st210{clip-path:url(#XMLID_2422_);fill:url(#XMLID_2423_);}
	.st211{clip-path:url(#XMLID_2424_);fill:url(#XMLID_2425_);}
	.st212{clip-path:url(#XMLID_2426_);fill:url(#XMLID_2427_);}
	.st213{clip-path:url(#XMLID_2428_);fill:url(#XMLID_2429_);}
	.st214{clip-path:url(#XMLID_2430_);fill:url(#XMLID_2431_);}
	.st215{clip-path:url(#XMLID_2432_);fill:url(#XMLID_2433_);}
	.st216{clip-path:url(#XMLID_2434_);fill:url(#XMLID_2435_);}
	.st217{clip-path:url(#XMLID_2436_);fill:url(#XMLID_2437_);}
	.st218{clip-path:url(#XMLID_2438_);fill:url(#XMLID_2439_);}
	.st219{clip-path:url(#XMLID_2440_);fill:url(#XMLID_2441_);}
	.st220{clip-path:url(#XMLID_2442_);fill:url(#XMLID_2443_);}
	.st221{clip-path:url(#XMLID_2444_);fill:url(#XMLID_2445_);}
	.st222{clip-path:url(#XMLID_2446_);fill:url(#XMLID_2447_);}
	.st223{clip-path:url(#XMLID_2448_);fill:url(#XMLID_2449_);}
	.st224{clip-path:url(#XMLID_2450_);fill:url(#XMLID_2451_);}
	.st225{clip-path:url(#XMLID_2452_);fill:url(#XMLID_2453_);}
	.st226{clip-path:url(#XMLID_2454_);fill:url(#XMLID_2455_);}
	.st227{clip-path:url(#XMLID_2456_);fill:url(#XMLID_2457_);}
	.st228{clip-path:url(#XMLID_2458_);fill:url(#XMLID_2459_);}
	.st229{clip-path:url(#XMLID_2460_);fill:url(#XMLID_2461_);}
	.st230{clip-path:url(#XMLID_2462_);fill:url(#XMLID_2463_);}
	.st231{clip-path:url(#XMLID_2464_);fill:url(#XMLID_2465_);}
	.st232{clip-path:url(#XMLID_2466_);fill:url(#XMLID_2467_);}
	.st233{clip-path:url(#XMLID_2468_);fill:url(#XMLID_2469_);}
	.st234{clip-path:url(#XMLID_2470_);fill:url(#XMLID_2471_);}
	.st235{clip-path:url(#XMLID_2472_);fill:url(#XMLID_2473_);}
	.st236{clip-path:url(#XMLID_2474_);fill:url(#XMLID_2475_);}
	.st237{clip-path:url(#XMLID_2476_);fill:url(#XMLID_2477_);}
	.st238{clip-path:url(#XMLID_2478_);fill:url(#XMLID_2479_);}
	.st239{clip-path:url(#XMLID_2480_);fill:url(#XMLID_2481_);}
	.st240{clip-path:url(#XMLID_2482_);fill:url(#XMLID_2483_);}
	.st241{clip-path:url(#XMLID_2484_);fill:url(#XMLID_2485_);}
	.st242{clip-path:url(#XMLID_2486_);fill:url(#XMLID_2487_);}
	.st243{clip-path:url(#XMLID_2488_);fill:url(#XMLID_2489_);}
	.st244{clip-path:url(#XMLID_2490_);fill:url(#XMLID_2491_);}
	.st245{clip-path:url(#XMLID_2492_);fill:url(#XMLID_2493_);}
	.st246{clip-path:url(#XMLID_2494_);fill:url(#XMLID_2495_);}
	.st247{clip-path:url(#XMLID_2496_);fill:url(#XMLID_2497_);}
	.st248{clip-path:url(#XMLID_2498_);fill:url(#XMLID_2499_);}
	.st249{clip-path:url(#XMLID_2500_);fill:url(#XMLID_2501_);}
	.st250{clip-path:url(#XMLID_2502_);fill:url(#XMLID_2503_);}
	.st251{clip-path:url(#XMLID_2504_);fill:url(#XMLID_2505_);}
	.st252{clip-path:url(#XMLID_2506_);fill:url(#XMLID_2507_);}
	.st253{clip-path:url(#XMLID_2508_);fill:url(#XMLID_2509_);}
	.st254{clip-path:url(#XMLID_2510_);fill:url(#XMLID_2511_);}
	.st255{clip-path:url(#XMLID_2512_);fill:url(#XMLID_2513_);}
	.st256{clip-path:url(#XMLID_2514_);fill:url(#XMLID_2515_);}
	.st257{clip-path:url(#XMLID_2516_);fill:url(#XMLID_2517_);}
	.st258{clip-path:url(#XMLID_2518_);fill:url(#XMLID_2519_);}
	.st259{clip-path:url(#XMLID_2520_);fill:url(#XMLID_2521_);}
	.st260{clip-path:url(#XMLID_2522_);fill:url(#XMLID_2523_);}
	.st261{clip-path:url(#XMLID_2524_);fill:url(#XMLID_2525_);}
	.st262{clip-path:url(#XMLID_2526_);fill:url(#XMLID_2527_);}
	.st263{clip-path:url(#XMLID_2528_);fill:url(#XMLID_2529_);}
	.st264{clip-path:url(#XMLID_2530_);fill:url(#XMLID_2531_);}
	.st265{clip-path:url(#XMLID_2532_);fill:url(#XMLID_2533_);}
	.st266{clip-path:url(#XMLID_2534_);fill:url(#XMLID_2535_);}
	.st267{clip-path:url(#XMLID_2536_);fill:url(#XMLID_2537_);}
	.st268{clip-path:url(#XMLID_2538_);fill:url(#XMLID_2539_);}
	.st269{clip-path:url(#XMLID_2540_);fill:url(#XMLID_2541_);}
	.st270{clip-path:url(#XMLID_2542_);fill:url(#XMLID_2543_);}
	.st271{clip-path:url(#XMLID_2544_);fill:url(#XMLID_2545_);}
	.st272{clip-path:url(#XMLID_2546_);fill:url(#XMLID_2547_);}
	.st273{clip-path:url(#XMLID_2548_);fill:url(#XMLID_2549_);}
	.st274{clip-path:url(#XMLID_2550_);fill:url(#XMLID_2551_);}
	.st275{clip-path:url(#XMLID_2552_);fill:url(#XMLID_2553_);}
	.st276{clip-path:url(#XMLID_2554_);fill:url(#XMLID_2555_);}
	.st277{clip-path:url(#XMLID_2556_);fill:url(#XMLID_2557_);}
	.st278{clip-path:url(#XMLID_2558_);fill:url(#XMLID_2559_);}
	.st279{clip-path:url(#XMLID_2560_);fill:url(#XMLID_2561_);}
	.st280{clip-path:url(#XMLID_2562_);fill:url(#XMLID_2563_);}
	.st281{clip-path:url(#XMLID_2564_);fill:url(#XMLID_2565_);}
	.st282{clip-path:url(#XMLID_2566_);fill:url(#XMLID_2567_);}
	.st283{clip-path:url(#XMLID_2568_);fill:url(#XMLID_2569_);}
	.st284{clip-path:url(#XMLID_2570_);fill:url(#XMLID_2571_);}
	.st285{clip-path:url(#XMLID_2572_);fill:url(#XMLID_2573_);}
	.st286{clip-path:url(#XMLID_2574_);fill:url(#XMLID_2575_);}
	.st287{clip-path:url(#XMLID_2576_);fill:url(#XMLID_2577_);}
	.st288{clip-path:url(#XMLID_2578_);fill:url(#XMLID_2579_);}
	.st289{clip-path:url(#XMLID_2580_);fill:url(#XMLID_2581_);}
	.st290{clip-path:url(#XMLID_2582_);fill:url(#XMLID_2583_);}
	.st291{clip-path:url(#XMLID_2584_);fill:url(#XMLID_2585_);}
	.st292{clip-path:url(#XMLID_2586_);fill:url(#XMLID_2587_);}
	.st293{clip-path:url(#XMLID_2588_);fill:url(#XMLID_2589_);}
	.st294{clip-path:url(#XMLID_2590_);fill:url(#XMLID_2591_);}
	.st295{clip-path:url(#XMLID_2592_);fill:url(#XMLID_2593_);}
	.st296{clip-path:url(#XMLID_2594_);fill:url(#XMLID_2595_);}
	.st297{clip-path:url(#XMLID_2596_);fill:url(#XMLID_2597_);}
	.st298{clip-path:url(#XMLID_2598_);fill:url(#XMLID_2599_);}
	.st299{clip-path:url(#XMLID_2600_);fill:url(#XMLID_2601_);}
	.st300{clip-path:url(#XMLID_2602_);fill:url(#XMLID_2603_);}
	.st301{clip-path:url(#XMLID_2604_);fill:url(#XMLID_2605_);}
	.st302{clip-path:url(#XMLID_2606_);fill:url(#XMLID_2607_);}
	.st303{clip-path:url(#XMLID_2608_);fill:url(#XMLID_2609_);}
	.st304{clip-path:url(#XMLID_2610_);fill:url(#XMLID_2611_);}
	.st305{clip-path:url(#XMLID_2612_);fill:url(#XMLID_2613_);}
	.st306{clip-path:url(#XMLID_2614_);fill:url(#XMLID_2615_);}
	.st307{clip-path:url(#XMLID_2616_);fill:url(#XMLID_2617_);}
	.st308{clip-path:url(#XMLID_2618_);fill:url(#XMLID_2619_);}
	.st309{clip-path:url(#XMLID_2620_);fill:url(#XMLID_2621_);}
	.st310{clip-path:url(#XMLID_2622_);fill:url(#XMLID_2623_);}
	.st311{clip-path:url(#XMLID_2624_);fill:url(#XMLID_2625_);}
	.st312{clip-path:url(#XMLID_2626_);fill:url(#XMLID_2627_);}
	.st313{clip-path:url(#XMLID_2628_);fill:url(#XMLID_2629_);}
	.st314{clip-path:url(#XMLID_2630_);fill:url(#XMLID_2631_);}
	.st315{clip-path:url(#XMLID_2632_);fill:url(#XMLID_2633_);}
	.st316{clip-path:url(#XMLID_2634_);fill:url(#XMLID_2635_);}
	.st317{clip-path:url(#XMLID_2636_);fill:url(#XMLID_2637_);}
	.st318{clip-path:url(#XMLID_2638_);fill:url(#XMLID_2639_);}
	.st319{clip-path:url(#XMLID_2640_);fill:url(#XMLID_2641_);}
	.st320{clip-path:url(#XMLID_2642_);fill:url(#XMLID_2643_);}
	.st321{clip-path:url(#XMLID_2644_);fill:url(#XMLID_2645_);}
	.st322{clip-path:url(#XMLID_2646_);fill:url(#XMLID_2647_);}
	.st323{clip-path:url(#XMLID_2648_);fill:url(#XMLID_2649_);}
	.st324{clip-path:url(#XMLID_2650_);fill:url(#XMLID_2651_);}
	.st325{clip-path:url(#XMLID_2652_);fill:url(#XMLID_2653_);}
	.st326{clip-path:url(#XMLID_2654_);fill:url(#XMLID_2655_);}
	.st327{clip-path:url(#XMLID_2656_);fill:url(#XMLID_2657_);}
	.st328{clip-path:url(#XMLID_2658_);fill:url(#XMLID_2659_);}
	.st329{clip-path:url(#XMLID_2660_);fill:url(#XMLID_2661_);}
	.st330{clip-path:url(#XMLID_2662_);fill:url(#XMLID_2663_);}
	.st331{clip-path:url(#XMLID_2664_);fill:url(#XMLID_2665_);}
	.st332{clip-path:url(#XMLID_2666_);fill:url(#XMLID_2667_);}
	.st333{clip-path:url(#XMLID_2668_);fill:url(#XMLID_2669_);}
	.st334{clip-path:url(#XMLID_2670_);fill:url(#XMLID_2671_);}
	.st335{clip-path:url(#XMLID_2672_);fill:url(#XMLID_2673_);}
	.st336{clip-path:url(#XMLID_2674_);fill:url(#XMLID_2675_);}
	.st337{clip-path:url(#XMLID_2676_);fill:url(#XMLID_2677_);}
	.st338{clip-path:url(#XMLID_2678_);fill:url(#XMLID_2679_);}
	.st339{clip-path:url(#XMLID_2680_);fill:url(#XMLID_2681_);}
	.st340{fill-rule:evenodd;clip-rule:evenodd;fill:#019BD8;}
	.st341{clip-path:url(#XMLID_2682_);fill:url(#XMLID_2683_);}
	.st342{clip-path:url(#XMLID_2684_);fill:url(#XMLID_2685_);}
	.st343{clip-path:url(#XMLID_2686_);fill:url(#XMLID_2687_);}
	.st344{clip-path:url(#XMLID_2688_);fill:url(#XMLID_2689_);}
	.st345{clip-path:url(#XMLID_2690_);fill:url(#XMLID_2691_);}
	.st346{clip-path:url(#XMLID_2692_);fill:url(#XMLID_2693_);}
	.st347{clip-path:url(#XMLID_2694_);fill:url(#XMLID_2695_);}
	.st348{clip-path:url(#XMLID_2696_);fill:url(#XMLID_2697_);}
	.st349{clip-path:url(#XMLID_2698_);fill:url(#XMLID_2699_);}
	.st350{clip-path:url(#XMLID_2700_);fill:url(#XMLID_2701_);}
	.st351{clip-path:url(#XMLID_2702_);fill:url(#XMLID_2703_);}
	.st352{clip-path:url(#XMLID_2704_);fill:url(#XMLID_2705_);}
	.st353{clip-path:url(#XMLID_2706_);fill:url(#XMLID_2707_);}
	.st354{clip-path:url(#XMLID_2708_);fill:url(#XMLID_2709_);}
	.st355{clip-path:url(#XMLID_2710_);fill:url(#XMLID_2711_);}
	.st356{clip-path:url(#XMLID_2712_);fill:url(#XMLID_2713_);}
	.st357{clip-path:url(#XMLID_2714_);fill:url(#XMLID_2715_);}
	.st358{clip-path:url(#XMLID_2716_);fill:url(#XMLID_2717_);}
	.st359{clip-path:url(#XMLID_2718_);fill:url(#XMLID_2719_);}
	.st360{clip-path:url(#XMLID_2720_);fill:url(#XMLID_2721_);}
	.st361{clip-path:url(#XMLID_2722_);fill:url(#XMLID_2723_);}
	.st362{clip-path:url(#XMLID_2724_);fill:url(#XMLID_2725_);}
	.st363{clip-path:url(#XMLID_2726_);fill:url(#XMLID_2727_);}
	.st364{clip-path:url(#XMLID_2728_);fill:url(#XMLID_2729_);}
	.st365{clip-path:url(#XMLID_2730_);fill:url(#XMLID_2731_);}
	.st366{clip-path:url(#XMLID_2732_);fill:url(#XMLID_2733_);}
	.st367{clip-path:url(#XMLID_2734_);fill:url(#XMLID_2735_);}
	.st368{clip-path:url(#XMLID_2736_);fill:url(#XMLID_2737_);}
	.st369{clip-path:url(#XMLID_2738_);fill:url(#XMLID_2739_);}
	.st370{clip-path:url(#XMLID_2740_);fill:url(#XMLID_2741_);}
	.st371{clip-path:url(#XMLID_2742_);fill:url(#XMLID_2743_);}
	.st372{clip-path:url(#XMLID_2744_);fill:url(#XMLID_2745_);}
	.st373{clip-path:url(#XMLID_2746_);fill:url(#XMLID_2747_);}
	.st374{clip-path:url(#XMLID_2748_);fill:url(#XMLID_2749_);}
	.st375{clip-path:url(#XMLID_2750_);fill:url(#XMLID_2751_);}
	.st376{clip-path:url(#XMLID_2752_);fill:url(#XMLID_2753_);}
	.st377{clip-path:url(#XMLID_2754_);fill:url(#XMLID_2755_);}
	.st378{clip-path:url(#XMLID_2756_);fill:url(#XMLID_2757_);}
	.st379{clip-path:url(#XMLID_2758_);fill:url(#XMLID_2759_);}
	.st380{clip-path:url(#XMLID_2760_);fill:url(#XMLID_2761_);}
	.st381{clip-path:url(#XMLID_2762_);fill:url(#XMLID_2763_);}
	.st382{clip-path:url(#XMLID_2764_);fill:url(#XMLID_2765_);}
	.st383{clip-path:url(#XMLID_2766_);fill:url(#XMLID_2767_);}
	.st384{clip-path:url(#XMLID_2768_);fill:url(#XMLID_2769_);}
	.st385{clip-path:url(#XMLID_2770_);fill:url(#XMLID_2771_);}
	.st386{clip-path:url(#XMLID_2772_);fill:url(#XMLID_2773_);}
	.st387{clip-path:url(#XMLID_2774_);fill:url(#XMLID_2775_);}
	.st388{clip-path:url(#XMLID_2776_);fill:url(#XMLID_2777_);}
	.st389{clip-path:url(#XMLID_2778_);fill:url(#XMLID_2779_);}
	.st390{clip-path:url(#XMLID_2780_);fill:url(#XMLID_2781_);}
	.st391{clip-path:url(#XMLID_2782_);fill:url(#XMLID_2783_);}
	.st392{clip-path:url(#XMLID_2784_);fill:url(#XMLID_2785_);}
	.st393{clip-path:url(#XMLID_2786_);fill:url(#XMLID_2787_);}
	.st394{clip-path:url(#XMLID_2788_);fill:url(#XMLID_2789_);}
	.st395{clip-path:url(#XMLID_2790_);fill:url(#XMLID_2791_);}
	.st396{clip-path:url(#XMLID_2792_);fill:url(#XMLID_2793_);}
	.st397{clip-path:url(#XMLID_2794_);fill:url(#XMLID_2795_);}
	.st398{clip-path:url(#XMLID_2796_);fill:url(#XMLID_2797_);}
	.st399{clip-path:url(#XMLID_2798_);fill:url(#XMLID_2799_);}
	.st400{clip-path:url(#XMLID_2800_);fill:url(#XMLID_2801_);}
	.st401{clip-path:url(#XMLID_2802_);fill:url(#XMLID_2803_);}
	.st402{clip-path:url(#XMLID_2804_);fill:url(#XMLID_2805_);}
	.st403{clip-path:url(#XMLID_2806_);fill:url(#XMLID_2807_);}
	.st404{clip-path:url(#XMLID_2808_);fill:url(#XMLID_2809_);}
	.st405{clip-path:url(#XMLID_2810_);fill:url(#XMLID_2811_);}
	.st406{clip-path:url(#XMLID_2812_);fill:url(#XMLID_2813_);}
	.st407{clip-path:url(#XMLID_2814_);fill:url(#XMLID_2815_);}
	.st408{clip-path:url(#XMLID_2816_);fill:url(#XMLID_2817_);}
	.st409{clip-path:url(#XMLID_2818_);fill:url(#XMLID_2819_);}
	.st410{clip-path:url(#XMLID_2820_);fill:url(#XMLID_2821_);}
	.st411{clip-path:url(#XMLID_2822_);fill:url(#XMLID_2823_);}
	.st412{clip-path:url(#XMLID_2824_);fill:url(#XMLID_2825_);}
	.st413{clip-path:url(#XMLID_2826_);fill:url(#XMLID_2827_);}
	.st414{clip-path:url(#XMLID_2828_);fill:url(#XMLID_2829_);}
	.st415{clip-path:url(#XMLID_2830_);fill:url(#XMLID_2831_);}
	.st416{clip-path:url(#XMLID_2832_);fill:url(#XMLID_2833_);}
	.st417{clip-path:url(#XMLID_2834_);fill:url(#XMLID_2835_);}
	.st418{clip-path:url(#XMLID_2836_);fill:url(#XMLID_2837_);}
	.st419{clip-path:url(#XMLID_2838_);fill:url(#XMLID_2839_);}
	.st420{clip-path:url(#XMLID_2840_);fill:url(#XMLID_2841_);}
	.st421{clip-path:url(#XMLID_2842_);fill:url(#XMLID_2843_);}
	.st422{clip-path:url(#XMLID_2844_);fill:url(#XMLID_2845_);}
	.st423{clip-path:url(#XMLID_2846_);fill:url(#XMLID_2847_);}
	.st424{clip-path:url(#XMLID_2848_);fill:url(#XMLID_2849_);}
	.st425{clip-path:url(#XMLID_2850_);fill:url(#XMLID_2851_);}
	.st426{clip-path:url(#XMLID_2852_);fill:url(#XMLID_2853_);}
	.st427{clip-path:url(#XMLID_2854_);fill:url(#XMLID_2855_);}
	.st428{clip-path:url(#XMLID_2856_);fill:url(#XMLID_2857_);}
	.st429{clip-path:url(#XMLID_2858_);fill:url(#XMLID_2859_);}
	.st430{clip-path:url(#XMLID_2860_);fill:url(#XMLID_2861_);}
	.st431{clip-path:url(#XMLID_2862_);fill:url(#XMLID_2863_);}
	.st432{clip-path:url(#XMLID_2864_);fill:url(#XMLID_2865_);}
	.st433{clip-path:url(#XMLID_2866_);fill:url(#XMLID_2867_);}
	.st434{clip-path:url(#XMLID_2868_);fill:url(#XMLID_2869_);}
	.st435{clip-path:url(#XMLID_2870_);fill:url(#XMLID_2871_);}
	.st436{clip-path:url(#XMLID_2872_);fill:url(#XMLID_2873_);}
	.st437{clip-path:url(#XMLID_2874_);fill:url(#XMLID_2875_);}
	.st438{clip-path:url(#XMLID_2876_);fill:url(#XMLID_2877_);}
	.st439{clip-path:url(#XMLID_2878_);fill:url(#XMLID_2879_);}
	.st440{clip-path:url(#XMLID_2880_);fill:url(#XMLID_2881_);}
	.st441{clip-path:url(#XMLID_2882_);fill:url(#XMLID_2883_);}
	.st442{clip-path:url(#XMLID_2884_);fill:url(#XMLID_2885_);}
	.st443{clip-path:url(#XMLID_2886_);fill:url(#XMLID_2887_);}
	.st444{clip-path:url(#XMLID_2888_);fill:url(#XMLID_2889_);}
	.st445{clip-path:url(#XMLID_2890_);fill:url(#XMLID_2891_);}
	.st446{clip-path:url(#XMLID_2892_);fill:url(#XMLID_2893_);}
	.st447{clip-path:url(#XMLID_2894_);fill:url(#XMLID_2895_);}
	.st448{clip-path:url(#XMLID_2896_);fill:url(#XMLID_2897_);}
	.st449{clip-path:url(#XMLID_2898_);fill:url(#XMLID_2899_);}
	.st450{clip-path:url(#XMLID_2900_);fill:url(#XMLID_2901_);}
	.st451{clip-path:url(#XMLID_2902_);fill:url(#XMLID_2903_);}
	.st452{clip-path:url(#XMLID_2904_);fill:url(#XMLID_2905_);}
	.st453{clip-path:url(#XMLID_2906_);fill:url(#XMLID_2907_);}
	.st454{clip-path:url(#XMLID_2908_);fill:url(#XMLID_2909_);}
	.st455{clip-path:url(#XMLID_2910_);fill:url(#XMLID_2911_);}
	.st456{clip-path:url(#XMLID_2912_);fill:url(#XMLID_2913_);}
	.st457{clip-path:url(#XMLID_2914_);fill:url(#XMLID_2915_);}
	.st458{clip-path:url(#XMLID_2916_);fill:url(#XMLID_2917_);}
	.st459{clip-path:url(#XMLID_2918_);fill:url(#XMLID_2919_);}
	.st460{clip-path:url(#XMLID_2920_);fill:url(#XMLID_2921_);}
	.st461{clip-path:url(#XMLID_2922_);fill:url(#XMLID_2923_);}
	.st462{clip-path:url(#XMLID_2924_);fill:url(#XMLID_2925_);}
	.st463{clip-path:url(#XMLID_2926_);fill:url(#XMLID_2927_);}
	.st464{clip-path:url(#XMLID_2928_);fill:url(#XMLID_2929_);}
	.st465{clip-path:url(#XMLID_2930_);fill:url(#XMLID_2931_);}
	.st466{clip-path:url(#XMLID_2932_);fill:url(#XMLID_2933_);}
	.st467{clip-path:url(#XMLID_2934_);fill:url(#XMLID_2935_);}
	.st468{clip-path:url(#XMLID_2936_);fill:url(#XMLID_2937_);}
	.st469{clip-path:url(#XMLID_2938_);fill:url(#XMLID_2939_);}
	.st470{clip-path:url(#XMLID_2940_);fill:url(#XMLID_2941_);}
	.st471{clip-path:url(#XMLID_2942_);fill:url(#XMLID_2943_);}
	.st472{clip-path:url(#XMLID_2944_);fill:url(#XMLID_2945_);}
	.st473{clip-path:url(#XMLID_2946_);fill:url(#XMLID_2947_);}
	.st474{clip-path:url(#XMLID_2948_);fill:url(#XMLID_2949_);}
	.st475{clip-path:url(#XMLID_2950_);fill:url(#XMLID_2951_);}
	.st476{clip-path:url(#XMLID_2952_);fill:url(#XMLID_2953_);}
	.st477{clip-path:url(#XMLID_2954_);fill:url(#XMLID_2955_);}
	.st478{clip-path:url(#XMLID_2956_);fill:url(#XMLID_2957_);}
	.st479{clip-path:url(#XMLID_2958_);fill:url(#XMLID_2959_);}
	.st480{clip-path:url(#XMLID_2960_);fill:url(#XMLID_2961_);}
	.st481{clip-path:url(#XMLID_2962_);fill:url(#XMLID_2963_);}
	.st482{clip-path:url(#XMLID_2964_);fill:url(#XMLID_2965_);}
	.st483{clip-path:url(#XMLID_2966_);fill:url(#XMLID_2967_);}
	.st484{clip-path:url(#XMLID_2968_);fill:url(#XMLID_2969_);}
	.st485{clip-path:url(#XMLID_2970_);fill:url(#XMLID_2971_);}
	.st486{clip-path:url(#XMLID_2972_);fill:url(#XMLID_2973_);}
	.st487{clip-path:url(#XMLID_2974_);fill:url(#XMLID_2975_);}
	.st488{clip-path:url(#XMLID_2976_);fill:url(#XMLID_2977_);}
	.st489{clip-path:url(#XMLID_2978_);fill:url(#XMLID_2979_);}
	.st490{clip-path:url(#XMLID_2980_);fill:url(#XMLID_2981_);}
	.st491{clip-path:url(#XMLID_2982_);fill:url(#XMLID_2983_);}
	.st492{clip-path:url(#XMLID_2984_);fill:url(#XMLID_2985_);}
	.st493{clip-path:url(#XMLID_2986_);fill:url(#XMLID_2987_);}
	.st494{clip-path:url(#XMLID_2988_);fill:url(#XMLID_2989_);}
	.st495{clip-path:url(#XMLID_2990_);fill:url(#XMLID_2991_);}
	.st496{clip-path:url(#XMLID_2992_);fill:url(#XMLID_2993_);}
	.st497{clip-path:url(#XMLID_2994_);fill:url(#XMLID_2995_);}
	.st498{clip-path:url(#XMLID_2996_);fill:url(#XMLID_2997_);}
	.st499{clip-path:url(#XMLID_2998_);fill:url(#XMLID_2999_);}
	.st500{clip-path:url(#XMLID_3000_);fill:url(#XMLID_3001_);}
	.st501{clip-path:url(#XMLID_3002_);fill:url(#XMLID_3003_);}
	.st502{clip-path:url(#XMLID_3004_);fill:url(#XMLID_3005_);}
	.st503{clip-path:url(#XMLID_3006_);fill:url(#XMLID_3007_);}
	.st504{clip-path:url(#XMLID_3008_);fill:url(#XMLID_3009_);}
	.st505{clip-path:url(#XMLID_3010_);fill:url(#XMLID_3011_);}
	.st506{clip-path:url(#XMLID_3012_);fill:url(#XMLID_3013_);}
	.st507{clip-path:url(#XMLID_3014_);fill:url(#XMLID_3015_);}
	.st508{clip-path:url(#XMLID_3016_);fill:url(#XMLID_3017_);}
	.st509{clip-path:url(#XMLID_3018_);fill:url(#XMLID_3019_);}
	.st510{clip-path:url(#XMLID_3020_);fill:url(#XMLID_3021_);}
	.st511{clip-path:url(#XMLID_3022_);fill:url(#XMLID_3023_);}
	.st512{clip-path:url(#XMLID_3024_);fill:url(#XMLID_3025_);}
	.st513{clip-path:url(#XMLID_3026_);fill:url(#XMLID_3027_);}
	.st514{clip-path:url(#XMLID_3028_);fill:url(#XMLID_3029_);}
	.st515{clip-path:url(#XMLID_3030_);fill:url(#XMLID_3031_);}
	.st516{clip-path:url(#XMLID_3032_);fill:url(#XMLID_3033_);}
	.st517{clip-path:url(#XMLID_3034_);fill:url(#XMLID_3035_);}
	.st518{clip-path:url(#XMLID_3036_);fill:url(#XMLID_3037_);}
	.st519{clip-path:url(#XMLID_3038_);fill:url(#XMLID_3039_);}
	.st520{clip-path:url(#XMLID_3040_);fill:url(#XMLID_3041_);}
	.st521{clip-path:url(#XMLID_3042_);fill:url(#XMLID_3043_);}
	.st522{clip-path:url(#XMLID_3044_);fill:url(#XMLID_3045_);}
	.st523{clip-path:url(#XMLID_3046_);fill:url(#XMLID_3047_);}
	.st524{clip-path:url(#XMLID_3048_);fill:url(#XMLID_3049_);}
	.st525{clip-path:url(#XMLID_3050_);fill:url(#XMLID_3051_);}
	.st526{clip-path:url(#XMLID_3052_);fill:url(#XMLID_3053_);}
	.st527{clip-path:url(#XMLID_3054_);fill:url(#XMLID_3055_);}
	.st528{clip-path:url(#XMLID_3056_);fill:url(#XMLID_3057_);}
	.st529{clip-path:url(#XMLID_3058_);fill:url(#XMLID_3059_);}
	.st530{clip-path:url(#XMLID_3060_);fill:url(#XMLID_3061_);}
	.st531{clip-path:url(#XMLID_3062_);fill:url(#XMLID_3063_);}
	.st532{clip-path:url(#XMLID_3064_);fill:url(#XMLID_3065_);}
	.st533{clip-path:url(#XMLID_3066_);fill:url(#XMLID_3067_);}
	.st534{clip-path:url(#XMLID_3068_);fill:url(#XMLID_3069_);}
	.st535{clip-path:url(#XMLID_3070_);fill:url(#XMLID_3071_);}
	.st536{clip-path:url(#XMLID_3072_);fill:url(#XMLID_3073_);}
	.st537{clip-path:url(#XMLID_3074_);fill:url(#XMLID_3075_);}
	.st538{clip-path:url(#XMLID_3076_);fill:url(#XMLID_3077_);}
	.st539{clip-path:url(#XMLID_3078_);fill:url(#XMLID_3079_);}
	.st540{clip-path:url(#XMLID_3080_);fill:url(#XMLID_3081_);}
	.st541{clip-path:url(#XMLID_3082_);fill:url(#XMLID_3083_);}
	.st542{clip-path:url(#XMLID_3084_);fill:url(#XMLID_3085_);}
	.st543{clip-path:url(#XMLID_3086_);fill:url(#XMLID_3087_);}
	.st544{clip-path:url(#XMLID_3088_);fill:url(#XMLID_3089_);}
	.st545{clip-path:url(#XMLID_3090_);fill:url(#XMLID_3091_);}
	.st546{clip-path:url(#XMLID_3092_);fill:url(#XMLID_3093_);}
	.st547{clip-path:url(#XMLID_3094_);fill:url(#XMLID_3095_);}
	.st548{clip-path:url(#XMLID_3096_);fill:url(#XMLID_3097_);}
	.st549{clip-path:url(#XMLID_3098_);fill:url(#XMLID_3099_);}
	.st550{clip-path:url(#XMLID_3100_);fill:url(#XMLID_3101_);}
	.st551{clip-path:url(#XMLID_3102_);fill:url(#XMLID_3103_);}
	.st552{clip-path:url(#XMLID_3104_);fill:url(#XMLID_3105_);}
	.st553{clip-path:url(#XMLID_3106_);fill:url(#XMLID_3107_);}
	.st554{clip-path:url(#XMLID_3108_);fill:url(#XMLID_3109_);}
	.st555{clip-path:url(#XMLID_3110_);fill:url(#XMLID_3111_);}
	.st556{clip-path:url(#XMLID_3112_);fill:url(#XMLID_3113_);}
	.st557{clip-path:url(#XMLID_3114_);fill:url(#XMLID_3115_);}
	.st558{clip-path:url(#XMLID_3116_);fill:url(#XMLID_3117_);}
	.st559{clip-path:url(#XMLID_3118_);fill:url(#XMLID_3119_);}
	.st560{clip-path:url(#XMLID_3120_);fill:url(#XMLID_3121_);}
	.st561{clip-path:url(#XMLID_3122_);fill:url(#XMLID_3123_);}
	.st562{clip-path:url(#XMLID_3124_);fill:url(#XMLID_3125_);}
	.st563{clip-path:url(#XMLID_3126_);fill:url(#XMLID_3127_);}
	.st564{clip-path:url(#XMLID_3128_);fill:url(#XMLID_3129_);}
	.st565{clip-path:url(#XMLID_3130_);fill:url(#XMLID_3131_);}
	.st566{clip-path:url(#XMLID_3132_);fill:url(#XMLID_3133_);}
	.st567{clip-path:url(#XMLID_3134_);fill:url(#XMLID_3135_);}
	.st568{clip-path:url(#XMLID_3136_);fill:url(#XMLID_3137_);}
	.st569{clip-path:url(#XMLID_3138_);fill:url(#XMLID_3139_);}
	.st570{clip-path:url(#XMLID_3140_);fill:url(#XMLID_3141_);}
	.st571{clip-path:url(#XMLID_3142_);fill:url(#XMLID_3143_);}
	.st572{clip-path:url(#XMLID_3144_);fill:url(#XMLID_3145_);}
	.st573{clip-path:url(#XMLID_3146_);fill:url(#XMLID_3147_);}
	.st574{clip-path:url(#XMLID_3148_);fill:url(#XMLID_3149_);}
	.st575{clip-path:url(#XMLID_3150_);fill:url(#XMLID_3151_);}
	.st576{clip-path:url(#XMLID_3152_);fill:url(#XMLID_3153_);}
	.st577{clip-path:url(#XMLID_3154_);fill:url(#XMLID_3155_);}
	.st578{clip-path:url(#XMLID_3156_);fill:url(#XMLID_3157_);}
	.st579{clip-path:url(#XMLID_3158_);fill:url(#XMLID_3159_);}
	.st580{clip-path:url(#XMLID_3160_);fill:url(#XMLID_3161_);}
	.st581{clip-path:url(#XMLID_3162_);fill:url(#XMLID_3163_);}
	.st582{clip-path:url(#XMLID_3164_);fill:url(#XMLID_3165_);}
	.st583{clip-path:url(#XMLID_3166_);fill:url(#XMLID_3167_);}
	.st584{clip-path:url(#XMLID_3168_);fill:url(#XMLID_3169_);}
	.st585{clip-path:url(#XMLID_3170_);fill:url(#XMLID_3171_);}
	.st586{clip-path:url(#XMLID_3172_);fill:url(#XMLID_3173_);}
	.st587{clip-path:url(#XMLID_3174_);fill:url(#XMLID_3175_);}
	.st588{clip-path:url(#XMLID_3176_);fill:url(#XMLID_3177_);}
	.st589{clip-path:url(#XMLID_3178_);fill:url(#XMLID_3179_);}
	.st590{clip-path:url(#XMLID_3180_);fill:url(#XMLID_3181_);}
	.st591{clip-path:url(#XMLID_3182_);fill:url(#XMLID_3183_);}
	.st592{clip-path:url(#XMLID_3184_);fill:url(#XMLID_3185_);}
	.st593{clip-path:url(#XMLID_3186_);fill:url(#XMLID_3187_);}
	.st594{clip-path:url(#XMLID_3188_);fill:url(#XMLID_3189_);}
	.st595{clip-path:url(#XMLID_3190_);fill:url(#XMLID_3191_);}
	.st596{clip-path:url(#XMLID_3192_);fill:url(#XMLID_3193_);}
	.st597{clip-path:url(#XMLID_3194_);fill:url(#XMLID_3195_);}
	.st598{clip-path:url(#XMLID_3196_);fill:url(#XMLID_3197_);}
	.st599{clip-path:url(#XMLID_3198_);fill:url(#XMLID_3199_);}
	.st600{clip-path:url(#XMLID_3200_);fill:url(#XMLID_3201_);}
	.st601{clip-path:url(#XMLID_3202_);fill:url(#XMLID_3203_);}
	.st602{clip-path:url(#XMLID_3204_);fill:url(#XMLID_3205_);}
	.st603{clip-path:url(#XMLID_3206_);fill:url(#XMLID_3207_);}
	.st604{clip-path:url(#XMLID_3208_);fill:url(#XMLID_3209_);}
	.st605{clip-path:url(#XMLID_3210_);fill:url(#XMLID_3211_);}
	.st606{clip-path:url(#XMLID_3212_);fill:url(#XMLID_3213_);}
	.st607{clip-path:url(#XMLID_3214_);fill:url(#XMLID_3215_);}
	.st608{clip-path:url(#XMLID_3216_);fill:url(#XMLID_3217_);}
	.st609{clip-path:url(#XMLID_3218_);fill:url(#XMLID_3219_);}
	.st610{clip-path:url(#XMLID_3220_);fill:url(#XMLID_3221_);}
	.st611{clip-path:url(#XMLID_3222_);fill:url(#XMLID_3223_);}
	.st612{clip-path:url(#XMLID_3224_);fill:url(#XMLID_3225_);}
	.st613{clip-path:url(#XMLID_3226_);fill:url(#XMLID_3227_);}
	.st614{clip-path:url(#XMLID_3228_);fill:url(#XMLID_3229_);}
	.st615{clip-path:url(#XMLID_3230_);fill:url(#XMLID_3231_);}
	.st616{clip-path:url(#XMLID_3232_);fill:url(#XMLID_3233_);}
	.st617{clip-path:url(#XMLID_3234_);fill:url(#XMLID_3235_);}
	.st618{clip-path:url(#XMLID_3236_);fill:url(#XMLID_3237_);}
	.st619{clip-path:url(#XMLID_3238_);fill:url(#XMLID_3239_);}
	.st620{clip-path:url(#XMLID_3240_);fill:url(#XMLID_3241_);}
	.st621{clip-path:url(#XMLID_3242_);fill:url(#XMLID_3243_);}
	.st622{clip-path:url(#XMLID_3244_);fill:url(#XMLID_3245_);}
	.st623{clip-path:url(#XMLID_3246_);fill:url(#XMLID_3247_);}
	.st624{clip-path:url(#XMLID_3248_);fill:url(#XMLID_3249_);}
	.st625{clip-path:url(#XMLID_3250_);fill:url(#XMLID_3251_);}
	.st626{clip-path:url(#XMLID_3252_);fill:url(#XMLID_3253_);}
	.st627{clip-path:url(#XMLID_3254_);fill:url(#XMLID_3255_);}
	.st628{clip-path:url(#XMLID_3256_);fill:url(#XMLID_3257_);}
	.st629{clip-path:url(#XMLID_3258_);fill:url(#XMLID_3259_);}
	.st630{clip-path:url(#XMLID_3260_);fill:url(#XMLID_3261_);}
	.st631{clip-path:url(#XMLID_3262_);fill:url(#XMLID_3263_);}
	.st632{clip-path:url(#XMLID_3264_);fill:url(#XMLID_3265_);}
	.st633{clip-path:url(#XMLID_3266_);fill:url(#XMLID_3267_);}
	.st634{clip-path:url(#XMLID_3268_);fill:url(#XMLID_3269_);}
	.st635{clip-path:url(#XMLID_3270_);fill:url(#XMLID_3271_);}
	.st636{clip-path:url(#XMLID_3272_);fill:url(#XMLID_3273_);}
	.st637{clip-path:url(#XMLID_3274_);fill:url(#XMLID_3275_);}
	.st638{fill:#B3B3B3;}
	.st639{fill:none;stroke:#D9D9D9;stroke-width:0.7;stroke-miterlimit:10;}
</style>
<g id="Fondo_1">
</g>
<g id="Fondo_2">
</g>
<g id="Información">
	<g>
		<g>
			<ellipse class="st6" cx="345.9" cy="434.7" rx="315.6" ry="20.7"/>
			<g>
				<path class="st7" d="M617.7,177.1c-0.1-22.5,4.1-36.9-2.1-41.6s-14.8-4.6-17.8-3.9c-1.9,0.4-5.6-2.6-8-1.7
					c-1.4,0.5-4.6,3.1-4.9,5.3c-1,6.8,10,25.5,10,25.5L617.7,177.1z"/>
				<path class="st8" d="M610.6,96.1c7.6,2.4,24.8,1.3,24.8,1.3v4.7L625,99.5l9.9,3.7l-3.3,11.1l-13.9-9.1l13.1,10l-3.2,3.6
					l-11.2-11.9l10.1,12.5l-6.9,5.6l-6.4-16.8l3.7,17.2h-9.2l-2.3-24.2L610.6,96.1z"/>
				<path class="st9" d="M610.8,93.7c2.9,1.9-1.1,13.2-5.6,11.4C600.7,103.2,610.8,93.7,610.8,93.7z"/>
				<path class="st10" d="M540.9,57.3c-1.7,3.4-1.5,26.2,5.4,32c6.8,5.8,8-27.7,8-27.7l-12.1-4.2"/>
				<g>
					<path class="st11" d="M540,151.7c-5.3,0.6-10.6,1.2-15.8,1.8c-2.7-7.2-5.5-14.3-7.8-21.6c-2.4-6-4.2-12.2-5.8-18.5
						c-1-3.6-1.9-7.3-2.8-10.9c-0.2-0.6-0.4-1.3-0.5-1.9c-2.1,0.7-10.5,2.5-11.6,2.5c1,9.4,2.8,18.7,4.8,27.8
						c2.7,12.5,4.3,24.9,8.2,37.1c0.4,1.1,0.8,2.3,1.7,3c0.8,0.5,1.8,0.6,2.7,0.6c12.5,0.3,25.6-2.5,37.9-4.6L540,151.7z"/>
				</g>
				<g>
					<path class="st11" d="M507.4,104.7c-0.7-6.6,2.2-12.9,4.2-19.1c0.3-1.1,0.3-2.7-0.8-2.8c-0.4,0-0.9,0.2-1.2,0.5
						c-2.3,1.7-4,4.1-4.8,6.9c-0.2-4.7-0.5-9.9-3.5-13.5c-0.9,0.2-1,1.4-0.9,2.3c0.3,3.2,0.6,6.4,0.8,9.6c-0.7-4.1-1.8-8.7-5.4-10.7
						c-0.7,0.6-0.5,1.7-0.3,2.5c0.8,2.9,1.5,5.9,2.3,8.8c-0.9-3.6-3.8-6.7-7.4-7.7c-0.8,1-0.3,2.5,0.3,3.7c1.1,2.1,2.4,4.1,3.9,6
						c-1.5-0.8-3-1.5-4.5-2.3c-0.7-0.3-1.5-0.7-2.2-0.2c-2.7,2,4.1,5.3,5,6.2c0.4,0.4,0.7,1,0.9,1.6c2,5.1,2.1,10.9,4.3,15.9"/>
				</g>
				<g>
					<path class="st12" d="M540.9,153l-0.9-1.3c-2.3,0.3-4.6,0.5-6.9,0.8c-0.5,5.7,0.5,11.6,2.4,17.2c2.5-0.4,5-0.8,7.5-1.3
						C542.2,163.3,541.4,158.2,540.9,153z"/>
				</g>
				<g>
					<path class="st11" d="M553.5,313.8c-2.2,7.1-4.3,14.3-6.5,21.4c-5.4,17.8-10.7,35.7-16.3,53.5c-3.8,12.1-8.6,23.8-12.5,35.9
						c3.8,0.8,7.5,1.9,11.2,3.2c6.9-14.9,14.3-29.5,22.1-43.9c8.8-16.4,17.7-32.8,26.5-49.2c1.3-2.5,2.7-5,4-7.5"/>
				</g>
				<g class="st13">
					<path class="st14" d="M578.5,333.6c1.1-2.1,2.3-4.3,3.4-6.4l-28.4-13.4c-0.7,2.2-1.3,4.3-2,6.5
						C559.6,326.7,568.7,331.9,578.5,333.6z"/>
				</g>
				<g>
					<path class="st11" d="M600.3,327.5c4.2,16.1,8.9,32,13.9,47.9c4.9,15.4,11.3,30.4,14.7,46.2c4.1-0.9,8.3-1.7,12.5-2.3
						c-1-1.9-1.4-4.1-1.8-6.2c-2.7-16.8-4.3-33.7-6.9-50.6c-2.7-17.6-6-35.1-9.7-52.5"/>
				</g>
				<g class="st13">
					<path class="st14" d="M623.9,315.7c-5.5,3.4-11.6,5.7-17.9,7.5l-5.6,4.7c0.7,2.4,1.4,4.7,2.2,7.1c8.4-1.3,16.5-4,24.1-7.8
						C625.7,323.4,624.8,319.5,623.9,315.7z"/>
				</g>
				<g>
					<path class="st7" d="M583.5,131.2c-3.2-1.2-7.9,0.2-10.5,1.7c-2,1.2-3.8,2.6-5.8,3.8c-0.3,0.2-0.6,0.4-1,0.6
						c-4.7,2.7-10,4.4-15,6.5c-4.8,1.9-9.6,3.9-14.6,5.2c0,7.9,0.6,15.7,3.8,22.7c8.7-1.3,17.3-3.2,25.6-6c2-0.7,23-4.3,23-3.9
						c0.1-1.3,0.1-2.7,0.1-4c0.1-7.6-0.4-15.8-2.6-23.1C586.2,132.8,585,131.7,583.5,131.2z"/>
				</g>
				<g>
					<path class="st15" d="M620.7,249.7c-0.3-1.4,0.2-2.6,1.1-3.4c-1-6.4-1.8-12.8-2.4-19.2c-6.8,5.2-15.3,8.4-23.9,8.9
						c-0.3,17.2-6.3,33.2-7.4,49.9c-0.7,10.4,4.6,19.3,3,30l17,62.8c12.6-3.4,15.5-4.8,27.2-10.6c1.1-0.6,5.2-2.2,6-3.1
						C635,343.9,625.1,271.5,620.7,249.7z"/>
				</g>
				<g>
					<path class="st11" d="M577.3,114.4c1,6.6,1.6,13.2,2.9,19.7c0,0.2,0.1,0.3,0.2,0.5c0.1,0.2,0.3,0.3,0.5,0.3
						c3.7,1.7,7.2,1.2,10.5-0.3c2.3-1.1,4.1-2.1,6.4-3c-3.2-6.2-5.7-12.9-7.8-19.6"/>
				</g>
				<g>
					<path class="st15" d="M572.8,235c-8.3,22.8-33.6,103.1-44.6,124.7c-0.4,0.8-0.8,1.7-0.5,2.5c0.2,0.5,0.5,0.8,0.9,1.2
						c13.6,13.5,15.9,16.5,34.6,20.9c2.5-10.4,35.8-72.3,38.3-82.7c2.2-9.2,5-13.4,10.2-21.2c10-15,14.8-33.4,13.2-51.3"/>
				</g>
				<g>
					<path class="st7" d="M624.4,212.5c-2.4-11.8-4.7-23.6-6.7-35.4c-10.3-13.3-19.5-28.6-30.6-41.1c-0.2-0.2-2.6,0.2-2.8,0
						c-2.5-0.2-2.8-1.5-5.1-2.7c-7.3,5.4-7.7,36.4-8,42.3c-0.7,13.6-2.2,27.6-3.9,41.1c-1.2,9.1-2.6,18.1-4.3,27.1
						c7.4,4.2,16.1,4.8,24.6,5.3c6.6,0.4,12.1-0.7,18.5-1c8.5-0.5,16.5-0.3,24.8-2.4C630.3,234.5,626.7,223.4,624.4,212.5z"/>
				</g>
				<g>
					<path class="st11" d="M544.2,84.3c-1.2-1.4-3.9-1.8-5.8-1c-1.9,0.8-3.2,2.5-3.5,4.2s0.2,3.5,0.9,5.1c1.7,3.7,5.1,7.1,9.6,8.7"
						/>
				</g>
				<g>
					<g>
						<path class="st16" d="M544.4,93.8c0.3,0,0-2.6-2.1-4.8c-2.1-2.2-4.5-2.9-4.6-2.6c-0.1,0.3,1.9,1.4,3.8,3.4
							C543.4,91.7,544.1,93.9,544.4,93.8z"/>
					</g>
					<g>
						<path class="st16" d="M542.8,91.2c0-0.3-1.1-0.6-2.3-0.3c-1.3,0.3-2.2,1-2,1.2c0.1,0.3,1.1,0.1,2.2-0.2
							C541.8,91.7,542.8,91.5,542.8,91.2z"/>
					</g>
				</g>
				<g>
					<path class="st11" d="M543.7,58.5c-3.3,8.7-0.2,19-0.3,28c-0.1,5.1-0.1,9.8,0.7,14.8c0.6,3.7,0.5,8.7,3.1,11.6
						c3.7,4,10.9,5.9,16.3,5.8c5.6-0.1,11.3-0.3,16.8-1c10.9-1.4,23.6-3.5,27.6-15.5c2-6,0.6-11.5-0.4-17.5
						c-1.1-6.5-1.2-12.9-2.8-19.4c-1.3-4.9-1.4-10.4-5.3-14c-7.7-7.1-19.4-5.7-28.9-4.8C561.1,47.5,547.7,48.1,543.7,58.5z"/>
				</g>
				<g>
					<path class="st11" d="M604.4,84.2c0.1-2.1,1.2-4.2,2.9-5.5c2.9-2.3,8.5-2.8,11,0.4c1.3,1.8,1.6,4.1,1.2,6.3
						c-0.4,2.2-1.5,4.1-2.7,6c-0.7,1.1-1.4,2.2-2.3,3.1c-1.7,1.7-3.8,2.7-6,3.7"/>
				</g>
				<g>
					<path class="st17" d="M572.6,93.3c-4,1.5-8.1,2.9-12.3,4.1c0.9,2.8,3.4,5,6.3,5.7c0.6,0.1,1.3,0.2,1.9,0.1
						c0.9-0.2,1.7-0.8,2.4-1.5c2.1-2.2,2.8-5.6,1.9-8.4"/>
				</g>
				<g>
					<path class="st18" d="M568.5,103.1c0.9-0.2,1.7-0.8,2.4-1.5c1-1,1.7-2.3,2-3.7c-2.3-0.2-4.6,0.2-6.5,1.4
						c-1.1,0.6-2,1.5-2.7,2.5c0.9,0.6,1.8,1,2.8,1.3C567.2,103.2,567.9,103.3,568.5,103.1z"/>
				</g>
				<g>
					<g>
						<path class="st8" d="M581.6,72c0.2-0.2-0.2-1-1.2-1.8c-1-0.8-2.8-1.6-4.8-1.7c-2.1-0.1-3.9,0.5-5,1.2c-0.6,0.3-1,0.8-1.2,1.1
							c-0.2,0.4-0.2,0.7,0,0.7c0.3,0.1,0.7-0.2,1.9-0.5c1.1-0.3,2.6-0.6,4.2-0.5C578.8,70.8,581.2,72.5,581.6,72z"/>
					</g>
					<g>
						<g>
							<path class="st19" d="M554.7,88.7c1.5-0.4,2.3-1.8,2.3-3.2c-0.1-1.4-1-2.8-2.5-3.1c-1.5-0.3-3,1.2-2.9,3.3
								C551.7,87.7,553.3,89.1,554.7,88.7z"/>
						</g>
						<g>
							<path class="st19" d="M576.3,85.8c1.4-0.4,2.3-1.9,2.2-3.5c-0.2-1.7-1.5-3.1-3-2.9c-1.5,0.1-2.6,1.6-2.4,3.5
								C573.2,84.8,574.8,86.2,576.3,85.8z"/>
						</g>
						<g>
							<path class="st8" d="M553.4,73.2c0-0.3-0.6-0.6-1.8-0.6c-1.1,0-2.7,0.5-4.1,1.5c-1.4,1.1-2.2,2.5-2.6,3.5
								c-0.3,1.1-0.2,1.8,0.1,1.9c0.6,0.1,1.5-2.1,3.8-3.7C551,74.2,553.4,73.8,553.4,73.2z"/>
						</g>
						<g>
							<path class="st16" d="M560.1,94.5c0.1,0-0.1-0.4-0.5-0.9c-0.3-0.5-0.9-1.3-1.1-2.4c-0.3-1-0.1-2.4,1-3.2
								c0.6-0.4,1.4-0.7,2.1-1.5c0.7-0.8,0.9-1.9,0.8-2.8c-0.2-1.9-0.9-3.5-1.4-5c-0.6-1.5-1.1-2.7-1.7-3.8c-1.1-2.1-1.9-3.3-2-3.2
								c-0.1,0.1,0.5,1.4,1.3,3.6c0.4,1.1,0.9,2.4,1.4,3.8c0.5,1.4,1.1,3.1,1.3,4.7c0.1,0.8-0.1,1.6-0.5,2.1
								c-0.4,0.5-1.2,0.9-1.9,1.4c-0.7,0.5-1.2,1.3-1.3,2.1c-0.1,0.8,0,1.5,0.2,2.1c0.4,1.2,1.1,1.9,1.6,2.4
								C559.8,94.3,560.1,94.5,560.1,94.5z"/>
						</g>
						<g>
							<path class="st16" d="M564.3,90.8c-0.2-0.2-0.9,0-1.5,0.6c-0.6,0.6-1,1.2-0.8,1.4c0.2,0.2,0.9,0,1.5-0.6
								C564.1,91.6,564.5,91,564.3,90.8z"/>
						</g>
					</g>
				</g>
				<g>
					<g>
						<path class="st16" d="M614.3,80.9c0-0.1-1.1,0.1-2.4,1.1c-1.3,1-2.8,2.8-3.7,5.1c-0.9,2.3-1.2,4.5-1.3,6.1
							c-0.1,1.6-0.1,2.5,0.1,2.6c0.2,0,0.4-0.9,0.7-2.5c0.3-1.5,0.7-3.6,1.5-5.8c0.8-2.1,2.1-3.9,3.2-4.9
							C613.5,81.5,614.4,81,614.3,80.9z"/>
					</g>
					<g>
						<path class="st16" d="M614.3,87.1c0-0.3-1.8-0.4-3.9,0.4c-1,0.4-1.9,1-2.3,1.6c-0.5,0.6-0.6,1.1-0.4,1.1
							c0.3,0.1,1.3-1.1,3.2-1.8C612.7,87.8,614.4,87.4,614.3,87.1z"/>
					</g>
				</g>
				<g>
					<path class="st8" d="M608.1,66.9c1.2,6.3,0.6,12.9-0.7,19.2c-0.1,0.7-0.4,1.5-1.1,1.6c-0.3,0.1-0.6,0-0.9-0.1
						c-1.9-0.7-3.9-1.4-5.5-2.6c-1.6-1.2-2.7-2.9-3.7-4.6c-3.8-6.8-5.4-14.8-4.3-22.5c-11.4,5.2-45.2,7.4-50.8,4.9S539.6,45,557,42
						C606.3,33.6,607,60.6,608.1,66.9z"/>
				</g>
				<g>
					<path class="st10" d="M598.6,75.3c-1.7-3.7-2.2-7.4-2.3-10.1c-0.1-2.7,0.2-4.4,0-4.4c-0.1,0-0.7,1.6-0.8,4.4
						c-0.1,2.7,0.3,6.7,2.1,10.5c1.8,3.9,4.4,6.8,6.5,8.5c1.4,1.2,2.6,1.8,3.2,2.1c0-0.1,0.1-0.2,0.1-0.3c0,0,0,0,0,0
						c-0.6-0.5-1.6-1.2-2.8-2.4C602.7,81.9,600.3,79,598.6,75.3z"/>
					<path class="st10" d="M606.7,79.9c-1.2-1.8-2.4-4.5-3.3-7.6c-0.9-3.1-1.3-6.1-1.5-8.3c-0.3-2.2-0.4-3.5-0.6-3.5
						c-0.1,0-0.2,1.4-0.2,3.5c0.1,2.2,0.4,5.2,1.3,8.5c0.9,3.3,2.4,6,3.7,7.8c0.9,1.1,1.6,1.8,2.1,2.2c0-0.1,0-0.3,0.1-0.4"/>
					<path class="st10" d="M608.8,73.9c-0.7-0.9-1.5-2-2.1-3.3c-1.9-4.1-2.3-7.8-2.7-7.8c-0.1,0-0.2,1,0,2.5
						c0.2,1.5,0.6,3.6,1.7,5.8c0.8,1.8,2,3.2,3.1,4.1C608.8,74.7,608.8,74.3,608.8,73.9z"/>
				</g>
				<g>
					<path class="st10" d="M550.3,50.6c3.4-2.3,6.9-3.5,9.6-4c2.6-0.5,4.3-0.6,4.3-0.7c0-0.1-1.7-0.4-4.4,0c-2.7,0.4-6.5,1.5-10,3.9
						c-3.5,2.4-6,5.5-7.3,7.9c-0.9,1.6-1.4,2.9-1.6,3.6c0.1,0,0.2,0,0.3,0c0,0,0,0,0,0c0.4-0.6,1-1.8,1.9-3.2
						C544.5,55.8,546.9,52.9,550.3,50.6z"/>
					<path class="st10" d="M547.1,59.4c1.6-1.4,4-3.2,7-4.6c3-1.4,5.8-2.3,7.9-2.9c2.1-0.6,3.4-1,3.3-1.2c0-0.1-1.4,0-3.5,0.4
						c-2.1,0.5-5.1,1.2-8.2,2.7c-3.1,1.5-5.5,3.4-7,5c-1,1-1.5,1.9-1.8,2.4c0.1,0,0.3,0,0.4,0"/>
					<path class="st10" d="M553.4,60.4c0.8-0.9,1.7-1.8,2.9-2.6c3.7-2.5,7.3-3.6,7.2-4c0-0.1-1,0-2.4,0.5c-1.4,0.5-3.4,1.2-5.4,2.6
						c-1.6,1.1-2.8,2.5-3.5,3.7C552.6,60.6,553,60.5,553.4,60.4z"/>
				</g>
				<g>
					<path d="M639.6,411.4c-3.4,2.8-8.4,4.3-13,4c-1.6,3.5-3.3,7-4.9,10.4c-0.4,0.9-0.9,1.8-1.6,2.5c-1.2,1.1-3.1,1.3-4.7,1.6
						c-3.5,0.5-6.9,1.3-10.3,2.2c-3.1,0.8-6,1.5-8.9,3.2c-1.3,0.7-4.3,3.9-1.1,4.5c5.6,0.9,11.7,0.8,17.4,0.8
						c6.1,0,12.3-0.4,18.4-1.1c1.4-0.2,2.7-0.3,4-0.8c4-1.3,6.8-4.8,9.5-8.1c0.5-0.6,1-1.2,1.1-2C645.8,426.1,639,411.8,639.6,411.4
						z"/>
				</g>
				<g>
					<path d="M518.9,417.9c-4,2.3-8.1,4.6-12.1,6.9c-1.9,1.1-3.8,2.2-5.9,2.9c-2.9,1-6,1.1-9.1,1.4c-3.6,0.4-7.5,0.8-10.9,2.1
						c-1.4,0.5-3.8,1.4-4.2,3.1c-0.8,3.2,4.6,3.3,6.8,3.7c6.7,1.1,13.4,1.4,20.2,1.8c7.5,0.4,15,0.8,22.5,1.2c0.7,0,1.4,0.1,2-0.2
						c0.8-0.4,1.3-1.3,1.7-2.1c2.6-5.3,3.9-11.1,4.1-17C528.4,423.5,522.4,423,518.9,417.9z"/>
				</g>
				<path class="st15" d="M522.7,366.5c1.1-6.8,6-16.2,6-16.2l44.8,23.3l-9.4,16.1L522.7,366.5z"/>
				<polygon class="st15" points="603.9,374 607.2,384.3 645.3,365.7 641.3,356.8 				"/>
			</g>
			<g>
				<g>
					<path class="st15" d="M452.9,342.5c2.2-16.3,3.7-32.6,4.1-49c0.6-22.7-0.2-39.6,0-58.2l-16.2-12.3l-32.2,0.3l-4.4,10.3
						l-9.9-1.4l-15.7,5.6c-2.8,29.5,0.9,55.5,0.9,55.5c1.5,16.4,3.2,32.7,5.3,49c7.5,0.9,16.5,0.9,22.8-0.3
						c-0.1-23.9,0.7-51.2,2.3-72.6c4.1-2.3,11.3-2.1,16.6-0.1c1.6,21.3,2.4,48.6,2.3,72.4C435.2,343.3,444.9,343.5,452.9,342.5z"/>
				</g>
				<g>
					<path class="st20" d="M460.8,162.7c-3.1-22.5-4.3-71.1-9.6-93.1c-0.6-2.6-1.3-5.2-2.6-7.4c-3.6-6.1-12.4-8.2-18.8-9.4
						c-7.4-1.3-15-1.4-22.5-0.6c-7,0.7-15.1,2.1-21.2,5.8c-3.8,2.3-5.8,7.4-7.1,11.6c-2.6,8.5-3.4,17.5-4.7,26.3
						c-2.1,14.4-5.1,51.6-7,67.8C386.4,173.2,451.4,175.7,460.8,162.7z"/>
				</g>
				<g>
					<path class="st21" d="M444.7,148.9c-11-7.3-30.5-7.5-42.3-5.1c-4.2,0.8-8.4,1.9-12,4c-1.1,0.7-2.2,1.4-3.2,2.3
						C399.9,154.1,428.1,157.7,444.7,148.9z"/>
				</g>
				<g>
					<path class="st22" d="M445,149c-0.1-0.1-0.2-0.1-0.3-0.2c-16.6,8.8-44.8,5.3-57.5,1.2c-2.2,2-3.9,4.4-4.8,7.3
						c-5.6,19-12,79.1-6.3,84.5c5.7,5.4,80.9,8.4,83.6-3.2C464.1,219.9,451.4,153.4,445,149z"/>
				</g>
				<g>
					<path class="st23" d="M384.9,342.5c3.2,25.6,7.2,51.1,11.8,76.4c0.2,1,0.4,2.1-0.1,3c-0.4,0.8-1.3,1.4-2.1,1.8
						c-8.1,4.4-16.2,8.9-24.3,13.3c2.9-0.4,37.9-7.3,37.9-8.6c0.1-22.8,0.4-45.7-0.2-68.4c-0.1-5.6-0.2-11.6-0.3-17.9
						C401.4,343.3,392.4,343.4,384.9,342.5z"/>
				</g>
				<g>
					<path class="st23" d="M442.1,423.7c-0.8-0.5-1.7-1-2.1-1.8c-0.5-0.9-0.3-2-0.1-3c4.7-25.4,9.6-50.8,13-76.4
						c-8,1-17.8,0.8-24-0.6c0,6.4-0.1,12.5-0.3,18.2c-0.6,22.7-0.3,45.6-0.2,68.4c0,1.3,35.1,8.1,37.9,8.6
						C458.3,432.6,450.2,428.1,442.1,423.7z"/>
				</g>
				<g>
					<path class="st21" d="M408.9,127.2c-0.3,6.6-0.6,13.1-1,19.7c0,0.3,0,0.5,0.1,0.8c0.2,0.3,0.5,0.4,0.8,0.5
						c4.7,1.6,9.8,0.6,14.6-0.7c-1.2-6.7-2-13.5-2.6-20.3"/>
				</g>
				<g>
					<path class="st23" d="M386,96.3c-1-1.4-1.9-2.9-3.2-4c-2.4-2.1-5.7-2.6-8.3-0.6c-2.5,1.9-3.7,5.3-2.9,8.3
						c0.4,1.8,1.5,3.4,2.7,4.9c2.5,3.2,6.1,6.1,10.1,6.1c0.2,0,0.3,0,0.5,0"/>
				</g>
				<g>
					<path class="st23" d="M445,98.1c1-1.4,1.9-2.9,3.2-4c2.4-2.1,5.7-2.6,8.3-0.6c2.5,1.9,3.7,5.3,2.9,8.3
						c-0.4,1.8-1.5,3.4-2.7,4.9c-2.5,3.2-6.1,6.1-10.1,6.1c-0.2,0-0.3,0-0.5,0"/>
				</g>
				<g>
					<path class="st23" d="M436.9,64.8c-5.5-2.5-10.6-3.6-17.5-3.1c-6.2,0.4-12.4,0.3-18.6,1.1c-6.2,0.9-12.3,2.3-15.2,8.6
						c-1.4,3-1.9,6.3-2.3,9.6c-1.2,10.6-2,22.5,0.8,32.8c0.6,2.3,1.4,4.6,2.8,6.5c2,2.7,5.1,4.3,8.1,5.5c5.2,2.2,10.7,3.6,16.3,4.4
						c10.2,1.3,20-1.5,28.3-7.3c10.8-7.5,9.9-22.6,9.5-34.3c-0.3-7.9,0.4-16.9-7.3-21.2C440.1,66.4,438.4,65.5,436.9,64.8z"/>
				</g>
				<g>
					<path class="st20" d="M379.5,75.5c0,0.3-0.1,0.7,0.1,1c0.2,0.4,0.8,0.5,1.2,0.5c4.2,0.5,8.4,0.7,12.7,0.7
						c1-5.2,2.2-10.5,3.5-15.6c1.2,5.1,2.1,10.2,2.5,15.4c7.8,0.6,15.6,0.3,23.4-0.7c0.4-0.1,0.9-0.1,1.1-0.5
						c0.2-0.3,0.3-0.7,0.3-1.1c0.2-4.4-0.1-9,1-13.3c0.6,5.2,1.2,10.4,1.9,15.6c4.8-0.2,9.5-0.4,14.3-0.7c-0.2-3.9-0.7-7.8-1.5-11.6
						c1.4,3.9,2.3,8.1,3.2,12.2c2.2-0.1,4.4-0.2,6.5-0.3c0.6,0-1.7-10.5-2.1-11.4c-1.2-3.2-3.7-6.5-6.7-8.1c-2.2-1.1-4.9-1.6-7.3-2
						c-7.1-1.2-14.3-1.8-21.4-2c-7.3-0.3-15.1,0.4-21.6,4.1c-3.2,1.8-5.4,3.6-7.3,6.8C381.3,67.9,379.8,71.6,379.5,75.5z"/>
				</g>
				<g>
					<g>
						<path class="st17" d="M416.2,104.8c-4.6,0.5-9.3,0.9-13.9,1c0.3,2.1,1,4.2,2.3,5.8c1.4,1.6,3.5,2.6,5.6,2.3
							c2-0.3,3.6-1.8,4.6-3.5c1-1.7,1.4-3.7,1.7-5.7"/>
					</g>
					<g>
						<path class="st24" d="M410.3,113.8c1.8-0.3,3.3-1.6,4.3-3.1c-0.6-0.4-1.3-0.8-2.1-1c-2.2-0.6-4.6-0.1-6.5,1
							c-0.5,0.3-0.9,0.6-1.3,0.9C406.2,113.2,408.2,114.2,410.3,113.8z"/>
					</g>
				</g>
				<g>
					<path d="M408.3,429.2c0.3-3.1,0.2-6.3,0.1-9.4c-2,2.3-4.4,3.2-7.3,3.3c-1.5,0.1-3,0-4.3-0.6c-0.3-0.2-0.6-0.3-1-0.3
						c-0.2,0-0.4,0.1-0.6,0.2c-4.3,1.9-8.7,3.6-13,5.5c-3.6,1.6-7.5,2.9-10.7,5.2c-0.7,0.5-1.4,1.1-1.8,1.8
						c-0.5,0.7-0.7,1.6-0.5,2.4c0.2,0.6,11.6-1.3,12.9-1.4c4.9-0.4,9.8-1.9,14.6-3c3.5-0.8,7.1-1.6,10.6-2.4c0.2,0,0.4-0.1,0.6-0.2
						C408.2,430,408.3,429.6,408.3,429.2z"/>
				</g>
				<g>
					<path d="M462,431.1c-3.7-2.3-7.6-4.2-11.6-5.8c-1.9-0.8-3.8-1.4-5.7-2.1c-0.5-0.2-2.2-1.1-3.6-1.8c-4.1,1.6-9,1.4-13.1-0.5
						c-0.1-0.1-0.2-0.2-0.4-0.2c-0.5,2.7-1.6,8.5,0.3,9c12.6,3.6,25.5,7,38.6,7.5C466.7,434.6,464.3,432.5,462,431.1z"/>
				</g>
				<polygon class="st15" points="383,335.6 384.5,348.6 414.3,346.9 412.3,335.8 				"/>
				<polygon class="st15" points="456.4,335.6 454.9,348.6 425.1,346.9 427.1,335.8 				"/>
				<g>
					<g>
						<path class="st25" d="M385.1,108.5c0.1-0.1-0.1-1-0.5-2.4c-0.5-1.4-1.3-3.3-2.5-5.3c-1.3-1.9-2.8-3.4-4.1-4.2
							c-1.3-0.8-2.2-1-2.3-0.9c-0.1,0.1,0.7,0.6,1.8,1.5c1.1,0.9,2.5,2.4,3.7,4.2C383.5,105.2,384.8,108.6,385.1,108.5z"/>
					</g>
					<g>
						<path class="st25" d="M382.2,102.4c0.1-0.2-1.3-1.1-3.2-0.7c-1.9,0.3-3,1.7-2.8,1.8c0.2,0.2,1.4-0.5,2.9-0.8
							C380.7,102.3,382.1,102.6,382.2,102.4z"/>
					</g>
					<g>
						<path class="st25" d="M446,108.5c0.3,0.1,1.6-3.3,4-7c1.2-1.8,2.6-3.3,3.7-4.2c1.1-0.9,1.9-1.4,1.8-1.5c0-0.1-1,0.1-2.3,0.9
							c-1.3,0.8-2.9,2.3-4.1,4.2c-1.3,1.9-2.1,3.9-2.5,5.3C446,107.5,445.8,108.4,446,108.5z"/>
					</g>
					<g>
						<path class="st25" d="M448.9,102.4c0.1,0.3,1.5,0,3,0.3c1.6,0.3,2.7,1,2.9,0.8c0.2-0.2-0.8-1.5-2.8-1.8
							C450.2,101.2,448.8,102.1,448.9,102.4z"/>
					</g>
				</g>
				<g>
					<g>
						<path class="st25" d="M405.8,104.1c0.2-0.1-0.9-1.3-1.5-3.6c-0.3-1.1-0.3-2.6,0.8-3.5c0.5-0.4,1.2-0.5,2-0.4
							c0.4,0,0.9,0.1,1.5,0c0.5-0.1,1.1-0.3,1.5-0.7c0.9-0.7,1.2-1.9,1.1-2.9c0-1-0.2-1.8-0.3-2.6c-0.2-1.6-0.4-3.1-0.6-4.3
							c-0.5-2.4-1-3.9-1.2-3.8c-0.2,0,0.1,1.5,0.4,3.9c0.1,1.2,0.3,2.6,0.4,4.3c0.2,1.6,0.7,3.5-0.5,4.5c-0.5,0.5-1.3,0.5-2.2,0.4
							c-0.9-0.1-2.1,0-2.8,0.7c-0.7,0.6-1.1,1.5-1.2,2.3c-0.1,0.8,0.1,1.5,0.3,2.1C404.5,103.1,405.8,104.1,405.8,104.1z"/>
					</g>
					<g>
						<path class="st25" d="M409.3,101.3c-0.2-0.2-0.7,0.1-1.1,0.5c-0.4,0.4-0.5,0.9-0.3,1.1c0.2,0.2,0.7,0.1,1.2-0.4
							C409.5,102,409.6,101.5,409.3,101.3z"/>
					</g>
					<g>
						<path class="st19" d="M398.8,96.9c1.5-0.1,2.6-1.7,2.5-3.5c-0.1-1.8-1.4-3.3-2.9-3.2c-1.5,0.1-2.6,1.7-2.5,3.5
							C396.1,95.6,397.4,97,398.8,96.9z"/>
					</g>
					<g>
						<path class="st19" d="M421.5,96.4c1.5-0.1,2.5-1.7,2.3-3.6c-0.2-1.9-1.6-3.2-3-2.9c-1.5,0.2-2.5,1.8-2.3,3.6
							C418.7,95.2,420,96.5,421.5,96.4z"/>
					</g>
					<g>
						<path class="st20" d="M403.4,81.8c0.1-0.3-0.7-0.7-2.1-1c-1.4-0.3-3.4-0.3-5.5,0.5c-2.1,0.8-3.6,2.3-4.3,3.5
							c-0.7,1.2-0.8,2.2-0.5,2.3c0.5,0.3,2.2-2.6,5.6-3.8C400,82,403.3,82.4,403.4,81.8z"/>
					</g>
					<g>
						<path class="st20" d="M428.6,85.9c0.3-0.1,0.2-1-0.6-2.2c-0.7-1.2-2.2-2.6-4.3-3.4c-2.1-0.8-4.1-0.7-5.5-0.3
							c-1.4,0.4-2,1-1.9,1.3c0.2,0.6,3.3-0.3,6.6,1C426.4,83.5,428.1,86.2,428.6,85.9z"/>
					</g>
				</g>
			</g>
			<g>
				<path class="st26" d="M308.5,325.2c3.6,33.9,5.3,68.1,5.1,102.2c8.5,1.7,17,3.3,25.5,5c-6.3,0.8-12.7,1.1-19,1
					c-5.7-0.1-11.4-1.2-17.1-0.5c-1.7,0.2-18.1-123.7-19.2-134"/>
			</g>
			<g>
				<path class="st26" d="M224.8,325.2c-3.6,33.9-5.3,68.1-5.1,102.2c-8.5,1.7-17,3.3-25.5,5c6.3,0.8,12.7,1.1,19,1
					c5.7-0.1,11.4-1.2,17.1-0.5c1.7,0.2,18.1-123.7,19.2-134"/>
			</g>
			<g>
				<path d="M301.1,426.9c4.2,0.2,8.6-0.9,12.4-2.4c1.1,1.2,2.3,2.4,3.4,3.6c4.3,0.5,8.6,0.5,12.9,1.1c3,0.4,6.6,0.5,9.3,1.7
					c1.2,0.6,2.7,1.9,2.6,3.4c-2.7,1.1-6,1.5-8.8,1.9c-3.1,0.4-6.1,0.7-9.2,0.7c-2.1,0-4.2-0.1-6.2-0.1c-5.2-0.1-10.5,0.2-15.7,0.4
					c-0.8-2.9-1.1-6-0.7-9.1C300.9,427.7,301,427.3,301.1,426.9z"/>
			</g>
			<g>
				<path d="M232.2,426.9c-4.2,0.2-8.6-0.9-12.4-2.4c-1.1,1.2-2.3,2.4-3.4,3.6c-4.3,0.5-8.6,0.5-12.9,1.1c-3,0.4-6.6,0.5-9.3,1.7
					c-1.2,0.6-2.7,1.9-2.6,3.4c2.7,1.1,6,1.5,8.8,1.9c3.1,0.4,6.1,0.7,9.2,0.7c2.1,0,4.2-0.1,6.2-0.1c5.2-0.1,10.5,0.2,15.7,0.4
					c0.8-2.9,1.1-6,0.7-9.1C232.3,427.7,232.3,427.3,232.2,426.9z"/>
			</g>
			<g class="st13">
				<path class="st14" d="M288.1,333c-0.4-3.1-0.8-6.1-1.2-8.9c6.1-0.8,12.2-1.5,18.3-2.3l3.2,3.4c0.1,1.2,0.2,2.4,0.4,3.7
					C302,330.3,295,331.6,288.1,333z"/>
			</g>
			<g class="st13">
				<path class="st14" d="M245.1,333c0.4-3.1,0.8-6.1,1.2-8.9c-6.1-0.8-12.2-1.5-18.3-2.3l-3.2,3.4c-0.1,1.2-0.2,2.4-0.4,3.7
					C231.3,330.3,238.2,331.6,245.1,333z"/>
			</g>
			<g>
				<path class="st15" d="M228.1,237.4c-5,27.9-16.6,151.6-18.9,186.9c-0.1,2,1.4,3.8,3.4,3.9l28.9,2.3c2.1,0.2,3.8-1.4,4-3.4
					c2.3-30,13.4-144.9,17.9-165.9c1.9,21.6,16.4,145.9,20.5,167.2c0.1,0.8,0.3,1.7,1,2.1c0.6,0.4,1.3,0.4,2,0.4
					c7.2-0.2,14.4-0.7,21.5-1.6c3.5-0.4,7-0.9,10.5-1.5c2.7-0.4,5.3,0.1,7.7-1.3c0.2-0.1,0.5-0.3,0.6-0.5c0.3-0.4,0.2-1,0.1-1.5
					c-1.6-9.3-13.7-121.7-15.3-131c-3.2-19.2-6.5-38.4-9.7-57.6"/>
			</g>
			<g>
				<g>
					<path class="st27" d="M278.2,261.8c-0.1-0.6-8.1-0.3-17.9-0.2c-9.9,0.1-17.9-0.1-17.9,0.5c0,0.6,8,1.7,17.9,1.6
						C270.3,263.6,278.3,262.4,278.2,261.8z"/>
				</g>
				<g>
					<path class="st27" d="M315.6,317.6c-1,0.1-3,0.5-5.7,1c-3.9,0.7-9.4,1.6-15.5,2.3c-6.1,0.7-11.6,1-15.6,1.1
						c-4,0.2-6.5,0.2-6.5,0.4c0,0.1,2.5,0.3,6.5,0.4c4,0,9.6-0.2,15.7-0.8c6.1-0.7,11.6-1.7,15.5-2.6c2.7-0.6,4.6-1.1,5.6-1.5
						C315.6,317.8,315.6,317.7,315.6,317.6z"/>
				</g>
				<g>
					<path class="st27" d="M249.1,322.2c-5.9-0.4-9.7-0.6-13.1-0.8c-3.3-0.3-7.1-0.5-13-1c-1.9-0.1-3.4-0.3-4.3-0.3
						c0,0.1,0,0.2,0,0.3c0.9,0.2,2.4,0.4,4.3,0.7c3.3,0.4,7.9,0.9,13,1.3c5.1,0.4,9.7,0.5,13.1,0.5c3.4,0,5.4-0.1,5.4-0.2
						C254.5,322.5,252.5,322.4,249.1,322.2z"/>
				</g>
				<g>
					<path class="st27" d="M255,262.6c0.3-0.1-0.9-5.3-1.4-11.9c-0.6-6.5-0.4-11.9-0.7-11.9c-0.3,0-0.9,5.4-0.3,12
						C253.2,257.5,254.8,262.7,255,262.6z"/>
				</g>
				<g>
					<path class="st27" d="M263.4,263.7c0.3,0-0.4-5.7-0.8-12.7c-0.4-7-0.4-12.7-0.7-12.7c-0.3,0-0.7,5.7-0.3,12.8
						C262,258.1,263.1,263.7,263.4,263.7z"/>
				</g>
				<g>
					<path class="st27" d="M305.7,261.7c0.1-0.1-1.1-1-2.4-2.8c-1.4-1.8-2.8-4.7-3.5-8.1c-0.7-3.4-0.8-6.6-0.9-9
						c-0.1-2.3-0.1-3.8-0.3-3.8c-0.1,0-0.3,1.4-0.4,3.8c-0.1,2.3-0.1,5.6,0.6,9.2c0.8,3.6,2.4,6.6,4,8.3
						C304.3,261.1,305.7,261.8,305.7,261.7z"/>
				</g>
				<g>
					<path class="st27" d="M230.5,238.4c-0.3,0,0.4,5.6-2,11.9c-1.4,3-2.8,5.7-3.8,7.7c0,0.5-0.1,1-0.1,1.5c0.2-0.3,0.4-0.7,0.7-1.1
						c1.2-1.9,2.7-4.6,4.2-7.7c1.3-3.2,1.6-6.4,1.6-8.7C231,239.8,230.6,238.4,230.5,238.4z"/>
				</g>
			</g>
			<path class="st26" d="M243.6,116.2c-4.4,1.2-23.5,24.6-30.6,49.3c9.8,5.2,23.1,7.7,23.1,7.7L243.6,116.2z"/>
			<g>
				<path class="st28" d="M294.7,166.3c-0.8-9-4.4-33.1-3.5-48.2c0.1-2.1-1.4-4-3.5-4.2c-2.7-0.4-5.5-0.2-8.4,0.2
					c0.4,7.3-10,23-15.6,23c-5.2,0-13-15.7-12-21.8c-1.7-0.2-3.5-0.2-5.3,0c-8.9,1.2-13.4,16.6-13.4,25.3c0,0-4.5,44.1-5.2,59
					c-0.5,10.7-2.4,28.6-4.3,39.2c26.9,0.8,53.8,0.3,80.7-1.3c-0.5-5.7-2.4-18.3-2.4-23.9C301.7,206.6,295.6,177.2,294.7,166.3z"/>
			</g>
			<g>
				<path class="st26" d="M263,137.7c5.6,0,17.2-17.4,16.8-24.7c-2.2,0.2-10.5-1.1-15.4-0.7c-4.4,0.4-10.7,1.3-12.7,1.7
					C250.6,120,257.8,137.7,263,137.7z"/>
			</g>
			<g class="st29">
				<path class="st30" d="M271,242.1c10.9,0.3,21.8,1,32.6,0.5c-0.4-2.2-0.8-4.5-1.1-6.7l-74.4,1.5c-0.3,1.9-0.6,3.8-1,5.7
					C241.7,242.3,256.4,241.8,271,242.1z"/>
			</g>
			<g>
				<path class="st26" d="M257.2,98.6c-0.2,6.8-0.2,13.5-0.6,20.2c-0.1,1.3,7.4,1.7,8.3,1.6c2.3-0.3,5.1-1.4,7.1-2.5
					c-1.4-7.6-2.8-15.3-4.2-22.9c-0.1-0.4-0.2-0.8-0.6-0.8"/>
			</g>
			<g>
				<path class="st26" d="M288.1,49.7c-0.1-0.4-0.1-0.9-0.2-1.3c-1.1-6.1-1.8-14.4-9.4-15.4c-8-1-16.1-1.6-24.2-1.3
					c-8,0.3-15.1-0.1-21.1,6c-5.3,5.5-7.8,11.7-7.1,19.4c0.7,7.2,1.8,14.4,2.2,21.6c0.4,7.6,2.8,15,9.3,19.4
					c4.2,2.8,10,4.4,14.9,4.4c5.2,0,10.4-0.5,15.5-1.5c6.9-1.3,13.7-3.9,18.1-9.7c2.4-3.1,3.7-5.5,4.1-9.5c0.5-4.5,0.2-9-0.1-13.5
					C289.8,62.2,289.1,55.9,288.1,49.7z"/>
			</g>
			<g>
				<path class="st26" d="M289.9,67.4c1.8-2.6,4.7-5,7.8-4.3c2.4,0.5,4.2,2.8,4.5,5.3c0.4,2.4-0.4,4.9-1.6,7.1
					c-2.3,4.3-6.3,7.7-10.9,9.3"/>
			</g>
			<g>
				<path class="st31" d="M238.8,77.5c-0.7-0.6-1.7-0.8-2.6-1"/>
			</g>
			<g>
				<path class="st31" d="M237.8,76.5c-1.5-0.3-3.2-0.2-4.6,0.4"/>
			</g>
			<g>
				<path class="st31" d="M271.5,74.1c-2.7-0.5-5.5-0.4-8.1,0.3c-1.6,0.4-3.1,1.1-4.1,2.5"/>
			</g>
			<g class="st32">
				<path class="st14" d="M323.2,169.4c-5.4,2-10.9,4-16.4,5.9c0.5,1.3,0.9,2.4,1.3,3.6c5.8-1.3,11.5-2.6,17.3-3.9
					C324.7,173.1,324,171.3,323.2,169.4z"/>
			</g>
			<path class="st26" d="M333.6,201.9c-0.1-2.8-1.1-5.6-2-8.2c-3-8.4-4.7-15.7-8.4-24.3c-7-20.3-24-52.2-30.9-53.3
				c-0.6-0.1-1.1-0.2-1.6-0.2c0.4,0.6,0.5,1.4,0.5,2.2c-0.6,9.3,0.2,22.9,1.6,33.9l13.9,23.3c2.4,6.3,3.7,10.5,5.6,16.9
				c-4.1,0.5-8.2,1-12.4,1.4c-7.7,0.8-15.3,1.7-22.8,3c-0.4,0.1-0.8,0.1-1.2,0c-0.7-0.2-1.1-0.8-1.5-1.4c-2.3-3.4-4.5-6.9-6.8-10.3
				c-0.5-0.8-1.6-1.7-2.3-1.1c-0.4,0.3-0.4,0.9-0.4,1.4c0.3,3.9,2.1,7.6,4.9,10.3c-3-0.4-6.1-0.7-9.1-1.1c-1.9-0.2-4.2-0.4-5.6,1
				c0.6,2,2.8,3,4.8,3.3c2,0.3,4.2,0.3,6.1,1.2c-3.1,0.5-6.2,1.1-9.3,1.8c-1.6,0.4-3.5,1.5-3.1,3c0.3,1.1,1.7,1.5,2.9,1.6
				c3.3,0.3,6.6-0.1,9.7-1.1c-2.5,2.2-4.7,4.9-6.2,7.8c-0.4,0.8-0.8,1.7-0.8,2.6c0.1,0.9,0.7,1.8,1.6,1.9c0.8,0,1.4-0.6,2-1.2
				c2.2-2.3,4.4-4.6,6.6-6.9c-2.2,2.4-3.4,5.6-3.4,8.8c0,0.8,0.1,1.6,0.6,2.2c0.5,0.6,1.4,0.9,2,0.5c0.4-0.2,0.6-0.7,0.8-1.1
				c1.5-3.1,3.3-6.1,5.3-9c0.4-0.5,0.8-1.1,1.4-1.4c0.6-0.4,1.4-0.4,2.1-0.4c7.7,0,15.5,0.2,23.3,0.1c1.4,0,2.7,0,4.1-0.1
				c9.3-0.3,17.2-2.2,26.1-4.7c0.6-0.2,1.2-0.3,1.5-0.8C333.6,203.1,333.6,202.5,333.6,201.9z"/>
			<g>
				<g>
					<path class="st33" d="M299.3,67c0-0.1-1.1-0.2-2.6,0.6c-1.5,0.7-3.2,2.3-4.4,4.6c-1.1,2.2-1.5,4.5-1.7,6
						c-0.2,1.6-0.2,2.6-0.1,2.6c0.1,0,0.4-0.9,0.8-2.5c0.4-1.5,0.9-3.6,1.9-5.7c1-2.1,2.5-3.6,3.8-4.4
						C298.3,67.4,299.3,67.2,299.3,67z"/>
				</g>
				<g>
					<path class="st33" d="M297,74.1c0.1-0.2-1.4-1-3.3-0.4c-1.9,0.6-2.7,2.1-2.5,2.3c0.2,0.2,1.2-0.8,2.8-1.3
						C295.5,74.2,296.9,74.4,297,74.1z"/>
				</g>
			</g>
			<g>
				<g>
					<path class="st33" d="M244.1,80.8c0.1-0.1-0.3-0.4-0.7-1c-0.4-0.6-0.9-1.6-0.9-2.8c0-1.2,0.5-2.8,1.7-3.9
						c0.6-0.5,1.5-0.9,2.3-1.4c0.4-0.3,0.9-0.6,1.2-1.1c0.3-0.5,0.5-1.1,0.6-1.7c0.1-1.2-0.3-2.2-0.5-3.1c-0.2-0.9-0.5-1.9-0.8-2.7
						c-0.5-1.7-1.1-3.2-1.6-4.5c-1.1-2.5-1.9-4-2-3.9c-0.1,0.1,0.5,1.6,1.3,4.2c0.4,1.3,0.9,2.8,1.4,4.5c0.2,0.9,0.5,1.8,0.7,2.7
						c0.2,0.9,0.5,1.9,0.5,2.8c0,0.9-0.5,1.6-1.3,2c-0.8,0.5-1.7,0.9-2.4,1.6c-1.5,1.3-2,3.2-1.8,4.6c0.1,1.5,0.8,2.5,1.3,3.1
						C243.6,80.7,244,80.9,244.1,80.8z"/>
				</g>
				<g>
					<path class="st33" d="M248.4,77.7c-0.2-0.2-0.8,0.1-1.3,0.6c-0.5,0.5-0.7,1.1-0.5,1.3c0.2,0.2,0.8-0.1,1.3-0.6
						C248.4,78.5,248.6,77.9,248.4,77.7z"/>
				</g>
				<g>
					<path class="st33" d="M253.1,78.1c-0.3-0.1-0.5,2.5-2.7,4.1c-2.2,1.6-4.7,1.1-4.7,1.4c0,0.1,0.5,0.5,1.5,0.6
						c1,0.1,2.5-0.1,3.8-1.1c1.3-1,2-2.3,2.2-3.3C253.4,78.7,253.2,78.1,253.1,78.1z"/>
				</g>
				<g>
					<path class="st9" d="M240.1,55.3c0-0.3-0.6-0.6-1.8-0.8c-1.1-0.2-2.8-0.1-4.6,0.7c-1.7,0.8-2.9,2.1-3.4,3.3
						c-0.5,1.1-0.4,1.9-0.1,2c0.5,0.1,1.7-2.2,4.4-3.4C237.3,55.8,240.1,55.9,240.1,55.3z"/>
				</g>
				<g>
					<path class="st9" d="M269.9,56.8c0.2-0.2-0.1-0.9-0.9-1.8c-0.8-0.9-2.2-1.8-3.9-2.4c-1.7-0.5-3.4-0.5-4.5-0.3
						c-1.1,0.3-1.8,0.7-1.7,1c0.1,0.6,2.7,0.4,5.6,1.3C267.5,55.6,269.4,57.2,269.9,56.8z"/>
				</g>
				<g>
					<path class="st19" d="M237.6,72.3c1.5-0.2,2.4-1.8,2.2-3.7c-0.2-1.8-1.6-3.2-3.1-3c-1.5,0.2-2.4,1.8-2.2,3.7
						C234.8,71.2,236.1,72.5,237.6,72.3z"/>
				</g>
				<g>
					<path class="st19" d="M260.2,70.2c1.5-0.2,2.4-1.9,2-3.7c-0.4-1.9-1.8-3.1-3.2-2.7c-1.4,0.4-2.3,2-2,3.7
						C257.3,69.2,258.7,70.4,260.2,70.2z"/>
				</g>
			</g>
			<g>
				<g>
					<path class="st34" d="M140.6,183.1c9.9,9.5,19.8,19.1,29.7,28.6c1.3-2.3,2.2-4.8,3-7.3c2.3-7.5,4.9-14.9,7.6-22.3
						c1.8-5.1,4-10.1,5.3-15.3c4.2,1.8,5.6,3.1,10.6,3.2c-1.5,12-2.4,24.6-5.3,36.3c-2.2,9-5.3,17.8-9.4,26.1
						c-0.7,1.5-1.5,3-2.7,4.1s-2.9,1.9-4.6,1.5c-1-0.3-1.9-0.9-2.7-1.6c-6.8-5.3-12.9-9.4-19-15.8c-7-7.3-13.8-14.7-20.5-22.3"/>
				</g>
				<path class="st35" d="M119.9,188c0,0-5.4-22.2-2.7-24.2c8.6-6.4,25.5,9.8,35.5,28.5c-0.9,1.9-15.4,11.3-19.7,10.3
					S119.9,188,119.9,188L119.9,188z"/>
				<g>
					<path class="st36" d="M136.1,254.9c-0.3-1-0.7-2.1-1.1-3.1c-2.5-6.1-6.2-7.6-12.5-8.3c-4.9-0.5-10-1-14.9,0.2
						c-7.8,2-11.3,8.4-11.1,16.2c0.6,18,11.4,37.3,1.2,54.5c-11.1,18.7-18.8,39-26.8,59.2c0,0,0-0.1,0-0.1c-0.1,0.2-0.2,0.4-0.2,0.6
						l0,0c-2.2,5.5-4.4,11-6.5,16.5c-3.6,9.3-6.7,18.9-10.8,27.9c-0.1,0.2-0.2,0.4-0.2,0.7c0,0.5,0.5,0.8,0.9,1.1
						c7.5,4.9,15.1,9.8,22.6,14.7c1.4,0.9,2.9,1.9,4.6,2.1c0.3-0.6-0.1-1.3-0.4-1.9c-3.6-5.7-7.5-11.1-11.9-16.1
						c-0.2-0.2-0.4-0.5-0.5-0.8c-0.3-1.2,1.9-4.3,2.5-5.3c1.3-2.3,2.6-4.5,3.9-6.8L88,385.1c6.5-9.8,13.2-19.4,20.1-29
						c10.1-14.2,20.6-29.1,26.8-45.8c3.4-9.3,4.9-19.3,4.8-29.2C139.6,272.4,138.8,263.3,136.1,254.9z"/>
				</g>
				<g>
					<g>
						<path class="st34" d="M152,429.7c-5.2-16.2-10.2-32.4-15-48.7c-7.7-25.9-14.9-52-22.1-78c-2.1-7.7-4.2-15.4-6.3-23.1
							c-1.8-6.4-3-12.6-4.1-19.2c-0.6-3.4-0.9-8.5-4.4-10.4c-2.6-1.4-5.8-0.4-8.4,0.3c-3.8,1.1-7.5,2.4-11.5,3.1
							c-5,0.8-4.8-2.2-9.5-4.1c-4.7,9.9-11.7,24.7-8.1,35.3c8.5,25.1,24.3,47.8,36.5,71.2c6.5,12.3,11.8,25,17.9,37.4
							c0.7,1.4,1.4,2.8,2.1,4.2c3.5,6.8,7.1,13.5,10.8,20.1c1.4,2.4,8.6,18.6,11,18.8c12.3,0.7,24.6,0.4,36.8-0.9
							C169.2,433.3,160.6,431.3,152,429.7z"/>
					</g>
					<g>
						<path class="st34" d="M65.6,252c-0.1,0.2-0.1,0.3-0.2,0.5C65.5,252.3,65.6,252.1,65.6,252L65.6,252z"/>
					</g>
				</g>
				<path class="st20" d="M71.9,243c-7.5,11-13,23.8-18.8,50.2c-5.8,26.3,78.2,22.5,90.4,14.8c12.2-7.7-2.7-58-14.8-66.6
					S71.9,243,71.9,243z"/>
				<path class="st37" d="M77.1,107c-20.4,2.2-36.6,3.7-36.6,3.7v9.1l11.3-3.2l-10.2,4.5v2.4l10.6-5.6l-9.5,6.5l7.1,10.4l9-8.8
					l-7.9,10.2l4.9,3.3l6.7-11.7l-5.6,12.8l1.9,0.9l6.9-12.3l-2.5,13.5l12.2,2.6L77.1,107z"/>
				<path class="st37" d="M134.5,104.4c20.4,2.2,36.6,3.7,36.6,3.7v9.1l-11.3-3.2l10.2,4.5v2.4l-10.6-5.6l9.5,6.5l-7.1,10.4l-9-8.8
					l7.9,10.2l-4.9,3.3l-6.7-11.7l5.6,12.8l-1.9,0.9l-6.9-12.3l2.5,13.5l-12.2,2.6L134.5,104.4z"/>
				<g>
					<path d="M55.2,414c0.8,0.8,1.7,1.6,2.7,2.3c3.5,2.4,8,4,12.2,3.2c0.1,0.1,0.2,0.2,0.3,0.3c4.8,4.6,8.6,10.3,10.8,16.6
						c0,0.1,0.1,0.3,0.1,0.4c-0.1,0.3-0.5,0.4-0.8,0.3c-1.3-0.1-2.5-0.7-3.6-1.3c-8.2-4.3-16.3-8.9-23.8-14.5
						c-0.3-0.2-0.5-0.4-0.6-0.7c-0.1-0.3,0-0.6,0.2-0.9C53.6,417.8,54.4,415.9,55.2,414z"/>
				</g>
				<g>
					<path class="st38" d="M78.4,207.7c-0.3-1.6-0.7-3.2-1-4.8c-0.3-1.3-0.3-3.6-1.2-4.6c-1.3,2.1-5.8-33.9-0.5-35.6
						c3-0.9,5.5-1.8,8.8-1.9c3,0,5.9,0.3,8.9,0.3c6.4-0.1,12.7,0.3,19.1,0.7c6.7,0.5,13.2-0.4,18.9,3.8c16.7,12.3,1.3,40.5,0.4,41.5
						c-1,1.1-1.9,2.4-2.8,3.7c-2.4,3.3-4.3,5.1-4.5,9.5c-0.1,2.2,0.4,4.4,1.4,6.9c3.5,8.6,7.2,17.2,11.4,25.5
						c0.1,0.2,0.2,0.4,0.1,0.6c-0.1,0.2-0.3,0.4-0.5,0.5c-22.2,13.5-49.6,10.1-72.5,0.2c3-10.3,7.8-20,14.2-28.6
						c0.8-1.1,1.7-2.2,2-3.5c0.4-1.5,0.1-3-0.2-4.6C79.7,214.1,79,210.9,78.4,207.7z"/>
				</g>
				<g>
					<path d="M152.2,428.9c0.1-0.4,0.1-0.7,0-1.1c1.3,0.3,2.8,0.6,4.1,0.6c1.3,0,2.6,0.4,3.9,0.7c2.8,0.6,5.6,1.3,8.3,2
						c3.7,1,8.5,1.7,11.9,3.4c0.7,0.4,1.2,1,1.1,1.8c-1.9,0.7-4.8,1.2-6.9,1.6c-2.7,0.4-5.3,0.6-8,0.8c-8.2,0.6-16.4,1.1-24.7,1.7
						c-0.6,0-1.3,0.1-1.8-0.2c-2.7-1.3-3-7.5-3.2-10c3.7,3.1,9.4,2.7,13.4,0.5c0.5-0.3,1.1-0.6,1.4-1.1
						C152,429.3,152.1,429.1,152.2,428.9z"/>
				</g>
				<g>
					<path class="st34" d="M113.9,141.7c-0.3,7.6,0.4,15.3,0.4,23c-2.2,0.9-5.1,1.8-7.5,1.5c-2.2-0.3-4.6-1.2-6.9-1.6
						c0.7-6.7,1.3-13.3,2-20"/>
				</g>
				<g>
					<path class="st39" d="M143,113.3c0.4-1,0.8-2,1.5-2.7s1.9-1.2,2.9-0.8c1,0.4,1.6,1.5,1.9,2.6c0.7,3.2-0.5,6.6-2.1,9.5
						c-1,1.8-2.4,3.7-4.3,4.5"/>
				</g>
				<g>
					<path class="st34" d="M78.5,84.8c1.9-5.3,5.4-7,10.8-8.4c9.5-2.6,19.5-1.8,29.2-1.8c9.2,0.1,19.2,5.2,21.9,14.3
						c1.7,5.7,1,11.6,2.3,17.3c2.6,11,2.7,27.1-7.9,34.4c-7.4,5.1-16.5,6.5-25.3,6.3c-6.2-0.1-11.6,0-17.5-2.4
						c-7.1-2.8-13-6.5-13.9-14.3C76.4,115.8,73.4,98.9,78.5,84.8z"/>
				</g>
				<g>
					<path class="st34" d="M78.1,119c-1-2.8-3.3-5.6-6.1-6.8c-2.7-1.1-6.1-1.6-8.4,0.6c-1.3,1.3-1.9,3.3-1.8,5.1
						c0.1,1.9,0.8,3.7,1.8,5.3c0.8,1.4,1.8,2.8,3,3.9c3.1,2.9,7.7,4,11.8,2.9"/>
				</g>
				<g>
					<g>
						<path class="st40" d="M74.8,129c-0.3,0,0.4-4.2-1.8-8.6c-2.2-4.4-6-6.4-5.8-6.6c0.1-0.1,1.1,0.2,2.4,1.2c1.4,1,3.1,2.7,4.2,5
							c1.2,2.3,1.5,4.7,1.4,6.4C75.3,128.1,74.9,129,74.8,129z"/>
					</g>
					<g>
						<path class="st40" d="M68.7,121.8c0-0.2,1.6-0.7,3.6-0.3c1,0.2,1.9,0.8,2.3,1.3c0.5,0.5,0.6,1,0.4,1c-0.2,0.1-1.2-1-3-1.4
							C70.3,122.1,68.7,122.1,68.7,121.8z"/>
					</g>
				</g>
				<g>
					<g>
						<path class="st40" d="M125.1,124.3c-0.1,0,0.2-0.5,0.6-1.2c0.4-0.8,1.1-1.9,1-3.3c-0.1-0.7-0.5-1.4-1.1-1.9
							c-0.7-0.5-1.6-0.9-2.5-1.4c-0.9-0.5-2-1.5-2-2.9c0-1.3,0.4-2.4,0.7-3.6c1.4-4.6,3.1-8.7,4.6-11.5c1.5-2.8,2.6-4.4,2.7-4.3
							c0.1,0.1-0.8,1.8-2,4.7c-1.3,2.9-2.9,6.9-4.2,11.4c-0.3,1.1-0.7,2.3-0.7,3.2c0,0.9,0.7,1.7,1.5,2.2c0.8,0.5,1.8,0.9,2.5,1.6
							c0.8,0.6,1.3,1.6,1.3,2.5c0,1.8-0.9,2.9-1.4,3.6C125.5,124,125.2,124.4,125.1,124.3z"/>
					</g>
					<g>
						<path class="st40" d="M120.6,122.2c0.2-0.2,0.7-0.1,1.2,0.2c0.5,0.3,0.8,0.8,0.6,1c-0.2,0.2-0.7,0.1-1.2-0.2
							C120.7,122.9,120.5,122.4,120.6,122.2z"/>
					</g>
					<g>
						<path class="st40" d="M115.6,121.2c0.2,0,0.1,0.7,0.4,1.8c0.3,1,1.1,2.4,2.5,3.2c1.4,0.8,3,0.8,4,0.6c1.1-0.2,1.7-0.6,1.8-0.5
							c0.1,0.1-0.4,0.7-1.6,1.2c-1.1,0.5-3,0.6-4.7-0.4c-1.7-1-2.5-2.7-2.7-3.9C115.2,121.9,115.5,121.2,115.6,121.2z"/>
					</g>
					<g>
						<path class="st37" d="M108.8,116.3c1.5-0.1,2.6-1.7,2.5-3.5c-0.1-1.8-1.4-3.3-2.9-3.2c-1.5,0.1-2.6,1.7-2.5,3.5
							C106,115,107.3,116.4,108.8,116.3z"/>
					</g>
					<g>
						<path class="st37" d="M131.5,115.9c1.5-0.1,2.5-1.7,2.3-3.6c-0.2-1.9-1.6-3.2-3-2.9c-1.5,0.2-2.5,1.8-2.3,3.6
							C128.6,114.6,130,116,131.5,115.9z"/>
					</g>
				</g>
				<g>
					<path class="st37" d="M144.7,107c-0.1-2.1-0.3-4.2-0.6-6.3c-0.6-5.3-1.6-10.5-3.9-15.3c-2.3-4.8-6-9-10.9-11
						c-3.1-1.3-6.4-1.6-9.8-1.8c-5.2-0.3-10.3-0.1-15.5,0.6c0.7,9.5,6.8,18,14.7,23.4C126.7,101.8,144.7,107,144.7,107z"/>
				</g>
				<g>
					<path class="st37" d="M107.2,75.9c0.5,8.1-2.8,15.8-6.2,23c-0.9,1.9-1.9,3.8-3.1,5.5c-1.5,2-3.3,3.7-5.3,5.2
						c-4.3,3.4-9.9,6.6-15.5,7.1c-0.3,0-0.6,0-0.9-0.1c-0.3-0.2-0.4-0.5-0.5-0.8c-1.7-5.5-1.6-30.1,1.7-34.8c0.8-1.2,1.9-2.1,3-2.9
						c7.5-5.4,17.3-5.3,26.2-4"/>
				</g>
				<circle class="st7" cx="74.7" cy="134.4" r="5.4"/>
				<polygon class="st7" points="96.5,153.9 121.5,155.4 116.6,169.1 99.6,171.6 				"/>
				<path class="st34" d="M115.6,200.8l-19.9,20.5c-2.8-9.2-5.7-18.4-8.6-27.5c-3.6-11.5,0-1.6-4.2-12.9l-13.3,5.4
					c3.6,11.3-1.6-0.1,2.5,11c5.2,14.1,10.5,28.6,16.7,42.3c0.8,1.7,2.8,2.3,4.4,1.3c9.9-6.2,26-34.9,26-34.9L115.6,200.8z"/>
				<path class="st7" d="M87.7,176.4c0,0-7.8-15-11.1-13.8c-10.6,3.6-14.6,24.8-3.8,42.9c2.2,0.2,18.8-6.6,20.3-10.6
					S87.7,176.4,87.7,176.4L87.7,176.4z"/>
				<g>
					<g class="st41">
						<path class="st42" d="M137.7,94.9c4.3-0.2,8.5,1.9,11.2,5.2s4,7.7,3.9,11.9c-0.1,3.7-1.4,7.7-4.4,9.9c-1.8,1.3-4,1.8-6.2,2
							c-1.8,0.2-3.7,0.1-5.4-0.4c-2.7-0.8-4.9-2.8-6.4-5.2s-2.3-5.2-2.8-7.9c-0.3-1.8-0.5-3.7-0.4-5.5c0.1-1.7,0.4-3.3,1-4.9
							c0.5-1.3,1.2-2.6,2.3-3.5c1.1-0.9,2.6-1.2,4.1-1.4c4.1-0.5,8.6,0.2,11.3,3.3"/>
					</g>
					<g class="st41">
						<path class="st42" d="M101.7,95.8c2.1-0.5,4.4,0,6.4,0.9c3.5,1.4,6.9,3.8,8.4,7.4c0.6,1.4,0.8,2.9,1,4.5
							c0.2,3.1-0.1,6.3-1.4,9.1s-3.7,5.2-6.7,6.2c-2.1,0.7-4.4,0.7-6.7,0.5c-3-0.2-6.1-0.8-8.4-2.7c-2.4-2-3.5-5.1-4.1-8.2
							c-0.5-3-0.6-6.2,0.3-9.1c0.9-2.9,2.7-5.7,5.4-7.2c3.3-1.9,7.4-1.8,11.2-1.3"/>
					</g>
					<g>
						<path class="st43" d="M125.1,107.7c0.2-7.8,4.3-13.7,12.5-14.1c8.1-0.4,14.5,7.3,15.4,14.8c1,8.7-2.9,15.9-12.1,16.7
							C131.2,126,125.6,115.9,125.1,107.7c-0.1-1.7,2.6-1.7,2.7,0c0.4,6.6,3.5,12.1,10,14.4c8,2.7,12.9-4.9,12.7-11.8
							c-0.4-15-22.2-19.6-22.7-2.5C127.7,109.5,125,109.5,125.1,107.7z"/>
					</g>
					<g>
						<path class="st43" d="M115.7,104.3c3-3.4,7.8-3.5,11-0.7c-0.4,1-0.5,2.2-0.4,3.3c-0.2-0.1-0.4-0.2-0.6-0.4
							c-2.1-2.8-5.8-2.7-8.1-0.2C116.5,107.5,114.5,105.6,115.7,104.3z"/>
					</g>
					<g>
						<path class="st43" d="M89.5,117.8c-3.5-7.6-1.8-17.7,5.9-22.1c7.5-4.3,17-0.9,21.3,6c4,6.5,1.8,17.3-4.8,21.3
							C104,127.8,94.3,125.6,89.5,117.8c-0.9-1.5,1.4-2.8,2.3-1.4c3.8,6.1,10.9,8,17.3,5.1c6.8-3,8.1-12.4,5.2-18.4
							c-2.8-5.7-9.5-7.1-15.1-5.9c-8.3,1.8-10.5,12.5-7.4,19.2C92.5,118,90.2,119.4,89.5,117.8z"/>
					</g>
					<g>
						<path class="st43" d="M89.2,111.4c-5.6-0.4-11.2-0.9-16.8-1.4c-1.7-0.2-1.2-2.8,0.6-2.6c5.4,0.6,10.8,1,16.2,1.4
							C90.8,108.8,91,111.5,89.2,111.4L89.2,111.4z"/>
					</g>
				</g>
			</g>
			<g>
				<rect x="99.9" y="158.9" class="st44" width="480.5" height="183.3"/>
			</g>
			<g>
				<g>
					<path class="st34" d="M178.4,155c-0.6-1.4-3.1-1.4-4.4-1.8c-1.6-0.5-3.3-0.9-4.9-1c-2.3-0.2-4.6,0-6.6,1
						c-1.4-0.1-2.8,0-4.2,0.3c-0.6,0.1-1.2,0.3-1.6,0.7c-0.4,0.4-0.7,1-0.9,1.6c-0.6,1.5-1.1,3-1.7,4.5c-0.6,1.7-1.2,3.4-0.8,5.1
						c0.1,0.6,0.5,1.1,1,1.3c-0.3,1.9,6.5,0.7,7.6,0.4c1.6-0.4,3.1-1,4.5-1.9c0.6-0.4,3.4-1.9,3.5-2.7c-0.1,1.1-0.2,2.1-0.3,3.2
						c0,0.4,0,0.8,0.2,1.1c0.5,0.5,1.3,0.2,1.8-0.3c2.1-1.7,3.4-4.2,4.6-6.6C177,158.8,179,156.5,178.4,155z"/>
				</g>
				<g>
					<path class="st34" d="M102.4,217c0-0.9,0.1-1.8,0.2-2.7c1-4.8,3.6-9.3,6.6-13.1c0.7-0.9,1.8-1.8,2.9-1.5
						c1.5,0.5,1.4,2.7,0.8,4.2c-1,2.7-2.4,5.2-4.2,7.5c3.1-0.5,6.4,0.1,9,1.8c0.4,0.3,0.9,0.7,1,1.2c0.1,1-1.1,1.5-2,1.6
						c-2.4,0.3-4.9,0.2-7.3-0.4c2.8,1.1,5.3,2.6,7.5,4.7c1,0.9,2,2.5,1.1,3.5c-3.4,0.6-6.3-2-8.7-4.1c1.5,2.2,2.8,4.5,3.7,6.9
						c0.3,0.7,0.5,1.7-0.1,2.2c-0.7,0.6-1.7,0.1-2.4-0.5c-1.7-1.5-3-3.5-3.7-5.8c0.4,1.7,0.3,3.4-0.1,5.1c-0.1,0.5-0.4,1.1-0.9,1.2
						c-0.4,0.1-0.7-0.2-1-0.4c-1.4-1.3-1.7-3.5-2-5.4C102.7,220.9,102.4,219,102.4,217z"/>
				</g>
			</g>
			<g>
				<g>
					<path class="st26" d="M231,164.8c0.4,0.7,0.8,1.5,0.8,2.3s-0.5,1.7-1.3,1.9c-0.7,0.1-1.3-0.2-1.9-0.5c-3.5-2.1-6.5-4.9-8.9-8.2
						c-1.7,3.3-4.2,6.1-7.3,8.3c-0.6,0.4-1.3,0.9-2.1,0.9s-1.6-0.4-1.8-1.2c-0.1-0.5,0.1-1,0.4-1.5c0.9-1.8,2.1-3.6,3.5-5.1
						c-2.5,2.2-5.5,3.9-8.7,4.9c-1,0.3-2.5,0.3-2.7-0.8c1.6-2.1,3.2-4.1,5-6.1c-2.8,1.7-5.9,3-9.1,3.7c-1.4,0.3-3.4,0.2-3.8-1.2
						c-0.3-1.2,0.9-2.3,2-3c5.1-3,11-4.6,16.9-4.7c3.8,0,7.8,0,11.3,1.7C226.6,157.9,229.2,161.6,231,164.8z"/>
				</g>
				<g>
					<path class="st26" d="M296.1,164.4c-0.4,0.7-0.8,1.5-0.8,2.3s0.5,1.7,1.3,1.9c0.7,0.1,1.3-0.2,1.9-0.5c3.5-2.1,6.5-4.9,8.9-8.2
						c1.7,3.3,4.2,6.1,7.3,8.3c0.6,0.4,1.3,0.9,2.1,0.9c0.8,0.1,1.6-0.4,1.8-1.2c0.1-0.5-0.1-1-0.4-1.5c-0.9-1.8-2.1-3.6-3.5-5.1
						c2.5,2.2,5.5,3.9,8.7,4.9c1,0.3,2.5,0.3,2.7-0.8c-1.6-2.1-3.2-4.1-5-6.1c2.8,1.7,5.9,3,9.1,3.7c1.4,0.3,3.4,0.2,3.8-1.2
						c0.3-1.2-0.9-2.3-2-3c-5.1-3-11-4.6-16.9-4.7c-3.8,0-7.8,0-11.3,1.7C300.6,157.5,297.9,161.3,296.1,164.4z"/>
				</g>
			</g>
			<g>
				<g>
					<path class="st23" d="M373.5,155.1c0.9,0,1.8,0,2.7,0.2c4.9,0.8,9.4,3.4,13.3,6.3c0.9,0.7,1.9,1.7,1.6,2.8
						c-0.4,1.5-2.6,1.5-4.1,0.9c-2.7-1-5.2-2.3-7.5-4c0.6,3.1,0,6.4-1.6,9c-0.3,0.4-0.6,0.9-1.1,1c-1,0.1-1.5-1.1-1.6-2
						c-0.4-2.4-0.3-4.9,0.2-7.3c-1,2.8-2.5,5.4-4.5,7.6c-0.9,1-2.4,2-3.5,1.2c-0.7-3.4,1.9-6.3,3.9-8.8c-2.1,1.5-4.4,2.9-6.9,3.9
						c-0.7,0.3-1.7,0.5-2.2,0c-0.6-0.6-0.1-1.7,0.4-2.4c1.5-1.8,3.5-3.1,5.7-3.8c-1.7,0.4-3.4,0.4-5.1,0c-0.5-0.1-1.1-0.3-1.2-0.8
						c-0.1-0.4,0.2-0.7,0.4-1c1.3-1.5,3.4-1.8,5.4-2.1C369.6,155.6,371.5,155.2,373.5,155.1z"/>
				</g>
				<g>
					<path class="st23" d="M458.3,155.1c-0.9,0-1.8,0-2.7,0.2c-4.9,0.8-9.4,3.4-13.3,6.3c-0.9,0.7-1.9,1.7-1.6,2.8
						c0.4,1.5,2.6,1.5,4.1,0.9c2.7-1,5.2-2.3,7.5-4c-0.6,3.1,0,6.4,1.6,9c0.3,0.4,0.6,0.9,1.1,1c1,0.1,1.5-1.1,1.6-2
						c0.4-2.4,0.3-4.9-0.2-7.3c1,2.8,2.5,5.4,4.5,7.6c0.9,1,2.4,2,3.5,1.2c0.7-3.4-1.9-6.3-3.9-8.8c2.1,1.5,4.4,2.9,6.9,3.9
						c0.7,0.3,1.7,0.5,2.2,0c0.6-0.6,0.1-1.7-0.4-2.4c-1.5-1.8-3.5-3.1-5.7-3.8c1.7,0.4,3.4,0.4,5.1,0c0.5-0.1,1.1-0.3,1.2-0.8
						c0.1-0.4-0.2-0.7-0.4-1c-1.3-1.5-3.4-1.8-5.4-2.1C462.2,155.6,460.3,155.2,458.3,155.1z"/>
				</g>
			</g>
			<g>
				<g>
					<path class="st11" d="M541.9,215c-0.7-0.4-1.5-0.7-2.4-0.7s-1.7,0.6-1.8,1.4c-0.1,0.7,0.3,1.3,0.6,1.9c2.3,3.4,5.2,6.3,8.6,8.5
						c-3.2,1.9-5.9,4.5-7.9,7.6c-0.4,0.6-0.8,1.4-0.8,2.1c0,0.8,0.5,1.6,1.2,1.7c0.5,0.1,1-0.2,1.5-0.4c1.8-1,3.5-2.3,5-3.7
						c-2.1,2.6-3.6,5.7-4.5,8.9c-0.3,1-0.2,2.5,0.9,2.7c2-1.7,4-3.4,5.8-5.3c-1.6,2.9-2.7,6-3.2,9.3c-0.2,1.5,0,3.4,1.4,3.8
						c1.3,0.3,2.3-1,2.9-2.1c2.8-5.2,4.1-11.2,3.9-17.1c-0.1-3.8-0.4-7.8-2.3-11.2C549,219.1,545.2,216.7,541.9,215z"/>
				</g>
				<g>
					<path class="st11" d="M613.6,177.1c0,0-9.9,36.7-11.5,38.5c-1.6,1.8-52.1,20.7-52.1,20.7l-2.8-12.1l38.5-22.5l8.7-31
						L613.6,177.1z"/>
					<g>
						<path class="st7" d="M619.3,157.5c-0.7,5.4-1.2,10.8-1.9,16.2c-1,7.9-3,15.7-3.4,23.5c-5.3,1.3-11,0.8-16.2-0.9
							s-10-4.4-14.6-7.5c3.3-12,7.1-23.9,12-35.4c3.3-7.9,8.3-22,19.9-18.1C624,138.3,620.2,150.7,619.3,157.5z"/>
					</g>
				</g>
			</g>
			<g>
				<path class="st45" d="M228.3,78.8c0,0-1.5-13.4,0-23.2c1.8-11.7-0.4-18.4-0.4-18.4s-3.7,0.9-5.4,10.2
					C219.4,63.3,228.3,78.8,228.3,78.8z"/>
				<path class="st45" d="M290.9,70.2c0,0-3.8-4.6-6.7-14.1c-2.8-9.5,0.2-20.7,0.2-20.7s3.7,0.7,6.1,9.8
					C294.6,60.9,290.9,70.2,290.9,70.2z"/>
				<path class="st45" d="M285.2,37c0,0-11.8,12.8-33.7,12.6c-21.9-0.2-27.7-11.1-28.9-15.8c-1.2-4.7,0.1-10.3,0.1-10.3
					s4.9,6.6,24.9,3c20-3.6,26.6-2.5,32.2,0.7C285.4,30.5,285.2,37,285.2,37z"/>
			</g>
			<g>
				<path class="st28" d="M286.2,115.1c1.2-0.1,4.3-0.1,5.4,0.3c2.6,1,5.2,2,7.3,3.8c3.7,3.2,5,8.3,7.4,12.5c0.5,0.8,1,1.6,1.3,2.6
					c0,0.2,0.1,0.3,0,0.5c-0.1,0.1-0.2,0.3-0.3,0.3c-4.9,3.7-10,7.1-15.3,10.3L286.2,115.1z"/>
				<g>
					<path class="st28" d="M286.2,116.5c8.6-0.3,13.4,4.5,16.9,11.9c0.5,1.1,1.7,2.8,2,3.9c0.8,3-1.1,3.5-3.1,4.9
						c-3.5,2.5-7.1,4.8-10.8,7.1c0.6,0.3,1.3,0.5,1.9,0.8c-1.9-10.1-3.8-20.2-5.8-30.3c-0.3-1.7-2.9-1-2.6,0.7
						c1.9,10.1,3.8,20.2,5.8,30.3c0.2,0.8,1.3,1.2,1.9,0.8c2.9-1.8,5.7-3.6,8.5-5.5c2-1.4,5.5-3,7-5c1.8-2.4-1-5.4-2.1-7.6
						c-2.1-4.2-3.8-8.6-7.8-11.3c-3.7-2.5-7.6-3.4-12-3.2C284.5,113.9,284.5,116.5,286.2,116.5z"/>
				</g>
			</g>
			<g>
				<path class="st28" d="M234.4,145.2c-3.4-0.7-6.9-1.5-9.9-3.4c-0.3-0.2-0.6-0.4-0.7-0.7c-0.2-0.4,0.1-0.9,0.3-1.3
					c2.7-5,5.5-10,9.1-14.4c3.6-4.4,7-7.7,13.3-8.8L234.4,145.2z"/>
				<g>
					<path class="st28" d="M234.7,144c-1.7-0.4-3.4-0.7-5.1-1.3c-1.4-0.2-2.6-0.8-3.7-1.7c-1.1-0.4-1.1-1.1,0.1-2
						c1-3,3.5-6.2,5.3-8.8c4-5.8,8.5-10.8,15.6-12.3c-0.5-0.6-1-1.3-1.5-1.9c-4,9.5-8.1,19.1-12.1,28.6c-0.7,1.6,1.6,2.9,2.3,1.3
						c4-9.5,8.1-19.1,12.1-28.6c0.5-1.1-0.3-2.2-1.5-1.9c-9.1,1.9-14.8,9.4-19.4,17.1c-1.3,2.2-5,6.3-4.2,9.2c1,3.2,9,4.3,11.5,4.9
						C235.7,146.9,236.4,144.3,234.7,144z"/>
				</g>
			</g>
			<g>
				<g>
					<path class="st46" d="M253.3,115.4c0.7,2,2.1,4.2,2.7,6.2c1.9,5.7,3.9,11.5,6.9,16.7"/>
					<g>
						<path class="st46" d="M252,115.8c3.1,7.8,5.8,15.9,9.8,23.3c0.8,1.5,3.1,0.2,2.3-1.3c-3.9-7.1-6.6-15.1-9.6-22.6
							C253.9,113.5,251.4,114.2,252,115.8L252,115.8z"/>
					</g>
				</g>
				<g>
					<path class="st46" d="M263.7,138.9c2.6-4.2,5.3-8.3,7.9-12.5c0.9-1.4,1.8-2.8,2.7-4.2c1-1.4,2-2.7,2.8-4.2
						c0.7-1.2,1.3-2.5,2.2-3.6"/>
					<g>
						<path class="st46" d="M264.9,139.6c5.2-8.2,10.2-16.5,15.6-24.5c1-1.4-1.3-2.7-2.3-1.3c-5.5,7.9-10.5,16.3-15.6,24.5
							C261.7,139.7,264,141.1,264.9,139.6L264.9,139.6z"/>
					</g>
				</g>
				<g>
					<path class="st46" d="M253.3,114.9c-3.7,0.5-7.9,1.6-11.5,2.6c3.8,3.8,8,7.3,12.5,10.3c0.1,0.1,0.3,0.2,0.3,0.4
						c0.1,0.3-0.1,0.5-0.3,0.7c-0.8,0.9-1.6,1.8-2.4,2.8c2.5,1.2,4.9,2.7,7,4.4c0.6,0.5,1.2,1,1.9,1.4c0.9,0.5,2,0.7,2.8,1.4"/>
					<g>
						<path class="st46" d="M252.9,113.6c-3.9,0.6-7.7,1.6-11.5,2.6c-1,0.2-1.3,1.5-0.6,2.2c2.3,2.3,4.7,4.5,7.3,6.5
							c2.4,1.9,5.5,2.7,2.9,5.8c-0.5,0.6-0.5,1.7,0.3,2.1c4.1,2,7.9,4.8,11.7,7.2c1.5,0.9,2.8-1.4,1.3-2.3
							c-3.9-2.4-7.7-5.1-11.7-7.2c0.1,0.7,0.2,1.4,0.3,2.1c1.1-1.3,2.4-2.4,3-4c0.2-0.4,0-1-0.3-1.3c-3.7-3.9-8.9-6.8-12.8-10.7
							c-0.2,0.7-0.4,1.5-0.6,2.2c3.8-1,7.6-1.9,11.5-2.6C255.3,115.9,254.6,113.4,252.9,113.6L252.9,113.6z"/>
					</g>
				</g>
				<g>
					<path class="st46" d="M279.7,114.3c3.2,0.1,6.4,0.4,9.5,0.7c0.8,0.1,1.7,0.2,2.2,0.9c-4.6,4.4-9.5,8.5-14.9,11.9
						c0.8,0.5,1.6,0.9,2.4,1.4c-2.1,2.4-4.5,4.5-7.1,6.3c-1.5,1-3,1.9-4.5,2.7c-1,0.6-2,1.2-3,1.7"/>
					<g>
						<path class="st46" d="M279.7,115.6c2.9,0.2,8.5-0.3,11,1.4c-0.1-0.7-0.2-1.4-0.3-2.1c-4.6,4.3-9.3,8.3-14.6,11.7
							c-0.8,0.5-0.9,1.8,0,2.3c0.8,0.5,1.6,0.9,2.4,1.4c-0.1-0.7-0.2-1.4-0.3-2.1c-4.1,4.6-9.1,7.5-14.4,10.6
							c-1.5,0.8-0.1,3.1,1.3,2.3c5.5-3.2,10.6-6.2,15-11c0.6-0.6,0.5-1.7-0.3-2.1c-0.8-0.5-1.6-0.9-2.4-1.4c0,0.8,0,1.5,0,2.3
							c5.5-3.5,10.4-7.6,15.2-12.1c0.7-0.6,0.4-1.6-0.3-2.1c-3.3-2.1-8.6-1.6-12.4-1.8C278,112.9,278,115.6,279.7,115.6L279.7,115.6
							z"/>
					</g>
				</g>
			</g>
		</g>
		<g>
			<g>
				<g>
					<path class="st38" d="M270.4,272.6l0.6,20.2c0,2.3,1.9,4.2,4.2,4.2l79.5-1.7l9.7-22.7H270.4z"/>
					<path class="st7" d="M364.5,272.6l-9.7,22.7l67.2-0.4c2.3,0,4.2-1.9,4.2-4.2l0.9-18.1H364.5z"/>
					<path class="st50" d="M286.4,286.4c0.7,0.5,1.5,0.9,2.2,1.1c0.7,0.3,1.4,0.4,2.1,0.4c0.6,0,1.1-0.1,1.4-0.3
						c0.3-0.2,0.5-0.4,0.5-0.8c0-0.2-0.1-0.3-0.2-0.4c-0.1-0.1-0.3-0.2-0.6-0.3c-0.2-0.1-0.5-0.1-0.8-0.2c-0.3,0-0.6-0.1-0.9-0.2
						c-0.3-0.1-0.7-0.1-1.1-0.2c-0.4-0.1-0.8-0.2-1.3-0.3c-0.4-0.1-0.9-0.3-1.3-0.6c-0.4-0.2-0.8-0.5-1.1-0.9
						c-0.3-0.3-0.6-0.8-0.8-1.2c-0.2-0.5-0.3-1-0.3-1.7c0-1,0.2-1.7,0.6-2.4s0.8-1.1,1.4-1.5c0.6-0.4,1.2-0.6,1.9-0.8
						c0.7-0.1,1.4-0.2,2.1-0.2c1.2,0,2.2,0.2,3.1,0.5c0.9,0.3,1.8,0.8,2.7,1.5c0.1,0.1,0.2,0.2,0.2,0.4c0,0.1,0,0.3-0.1,0.4
						l-1.6,2.3c-0.1,0.1-0.2,0.2-0.3,0.2c-0.1,0-0.3,0-0.4-0.1c-0.7-0.4-1.4-0.8-2-0.9c-0.6-0.2-1.2-0.3-1.7-0.3c-0.2,0-0.3,0-0.5,0
						c-0.2,0-0.4,0-0.6,0.1c-0.2,0-0.3,0.1-0.4,0.2c-0.1,0.1-0.2,0.3-0.2,0.5c0,0.2,0.1,0.4,0.4,0.5c0.3,0.2,0.6,0.3,1,0.4
						c0.4,0.1,0.7,0.2,1.1,0.3c0.3,0.1,0.6,0.1,0.7,0.1c0.5,0.1,1,0.2,1.6,0.4c0.6,0.2,1.2,0.5,1.7,0.8c0.5,0.4,1,0.8,1.3,1.4
						c0.4,0.6,0.5,1.3,0.5,2.2c0,0.8-0.1,1.6-0.4,2.2c-0.3,0.6-0.7,1.1-1.2,1.5c-0.5,0.4-1.1,0.7-1.9,0.9c-0.7,0.2-1.5,0.3-2.4,0.3
						c-0.7,0-1.4-0.1-2-0.2c-0.6-0.1-1.2-0.3-1.7-0.5c-0.5-0.2-1-0.5-1.5-0.7c-0.5-0.3-0.9-0.6-1.3-0.9c-0.1-0.1-0.2-0.2-0.2-0.3
						c0-0.1,0-0.3,0.1-0.4l1.6-2.3c0.1-0.1,0.2-0.2,0.3-0.2C286.2,286.3,286.3,286.4,286.4,286.4"/>
					<path class="st50" d="M302.9,276.9c0.1-0.1,0.1-0.2,0.3-0.3c0.1-0.1,0.3-0.1,0.4-0.1h2.9c0.1,0,0.3,0,0.4,0.1
						c0.1,0.1,0.2,0.2,0.3,0.3l6.1,14.2c0.1,0.1,0,0.3,0,0.4c-0.1,0.1-0.2,0.2-0.4,0.2h-3.6c-0.2,0-0.3,0-0.4-0.1
						c-0.1-0.1-0.2-0.2-0.3-0.3l-0.6-1.2c-0.1-0.1-0.2-0.2-0.3-0.3c-0.1-0.1-0.3-0.1-0.4-0.1h-4.4c-0.2,0-0.3,0-0.4,0.1
						c-0.1,0.1-0.2,0.2-0.3,0.3l-0.6,1.2c-0.1,0.1-0.1,0.2-0.3,0.3c-0.1,0.1-0.3,0.1-0.4,0.1h-3.6c-0.1,0-0.1,0-0.2,0
						c-0.1,0-0.1-0.1-0.2-0.1c0-0.1-0.1-0.1-0.1-0.2c0-0.1,0-0.2,0.1-0.3L302.9,276.9z M304.1,286h1.9c0.1,0,0.2,0,0.3-0.1
						c0.1-0.1,0.1-0.2,0-0.3c-0.1-0.3-0.3-0.8-0.5-1.2c-0.2-0.5-0.4-0.9-0.5-1.3c-0.1-0.1-0.1-0.2-0.2-0.2c-0.1,0-0.1,0.1-0.2,0.2
						l-1,2.5c-0.1,0.1-0.1,0.2,0,0.3C303.8,285.9,303.9,286,304.1,286"/>
					<path class="st50" d="M325.6,288.3v2.8c0,0.1,0,0.3-0.1,0.4c-0.1,0.1-0.2,0.1-0.4,0.1h-10.4c-0.2,0-0.3,0-0.4-0.1
						c-0.1-0.1-0.1-0.2-0.1-0.4v-14.2c0-0.1,0-0.3,0.1-0.4c0.1-0.1,0.2-0.1,0.4-0.1h3.1c0.1,0,0.3,0,0.4,0.1
						c0.1,0.1,0.1,0.2,0.1,0.4v10.4c0,0.1,0,0.3,0.1,0.4c0.1,0.1,0.2,0.1,0.4,0.1h6.3c0.1,0,0.3,0,0.4,0.1
						C325.5,288.1,325.6,288.2,325.6,288.3"/>
					<path class="st50" d="M327,276.9c0-0.1,0-0.3,0.1-0.4c0.1-0.1,0.2-0.1,0.4-0.1h3.1c0.1,0,0.3,0,0.4,0.1
						c0.1,0.1,0.1,0.2,0.1,0.4v8.4c0,0.5,0.1,1,0.3,1.3c0.2,0.4,0.4,0.6,0.6,0.8s0.5,0.3,0.8,0.4c0.3,0.1,0.6,0.1,0.8,0.1
						s0.5,0,0.8-0.1c0.3-0.1,0.6-0.2,0.8-0.4c0.3-0.2,0.5-0.5,0.6-0.8c0.2-0.4,0.3-0.8,0.3-1.3v-8.4c0-0.1,0-0.3,0.1-0.4
						c0.1-0.1,0.2-0.1,0.4-0.1h3.1c0.1,0,0.3,0,0.4,0.1c0.1,0.1,0.1,0.2,0.1,0.4v8.4c0,1-0.2,1.9-0.5,2.7c-0.3,0.8-0.8,1.5-1.3,2.1
						c-0.6,0.6-1.3,1-2.1,1.3c-0.8,0.3-1.7,0.5-2.7,0.5c-1,0-1.9-0.2-2.7-0.5c-0.8-0.3-1.5-0.8-2.1-1.3c-0.6-0.6-1-1.3-1.4-2.1
						c-0.3-0.8-0.5-1.7-0.5-2.7V276.9z"/>
					<path class="st50" d="M343.5,291.2v-14.2c0-0.1,0-0.3,0.1-0.4c0.1-0.1,0.2-0.1,0.4-0.1h5.7c2.2,0,4,0.6,5.4,1.9
						c0.7,0.7,1.3,1.5,1.7,2.5c0.4,1,0.6,2,0.6,3.2s-0.2,2.3-0.6,3.2c-0.4,1-1,1.8-1.7,2.5c-0.7,0.6-1.5,1.1-2.4,1.4
						c-0.9,0.3-1.9,0.5-3,0.5H344c-0.1,0-0.3,0-0.4-0.1C343.5,291.4,343.5,291.3,343.5,291.2 M348.1,287.8h1.6c0.4,0,0.8,0,1.2-0.1
						c0.4-0.1,0.8-0.3,1.1-0.6c0.3-0.3,0.6-0.7,0.8-1.1c0.2-0.5,0.3-1.1,0.3-1.9c0-0.8-0.1-1.4-0.3-1.9c-0.2-0.5-0.5-0.9-0.8-1.1
						c-0.3-0.3-0.7-0.5-1.1-0.6c-0.4-0.1-0.8-0.1-1.2-0.1h-1.6c-0.1,0-0.3,0-0.4,0.1c-0.1,0.1-0.1,0.2-0.1,0.4v6.5
						c0,0.1,0,0.3,0.1,0.4C347.8,287.8,347.9,287.8,348.1,287.8"/>
					<path class="st50" d="M362.7,276.9c0.1-0.1,0.1-0.2,0.3-0.3c0.1-0.1,0.3-0.1,0.4-0.1h2.9c0.1,0,0.3,0,0.4,0.1
						c0.1,0.1,0.2,0.2,0.3,0.3l6.1,14.2c0.1,0.1,0,0.3,0,0.4c-0.1,0.1-0.2,0.2-0.4,0.2H369c-0.2,0-0.3,0-0.4-0.1
						c-0.1-0.1-0.2-0.2-0.3-0.3l-0.6-1.2c-0.1-0.1-0.2-0.2-0.3-0.3c-0.1-0.1-0.3-0.1-0.4-0.1h-4.4c-0.2,0-0.3,0-0.4,0.1
						c-0.1,0.1-0.2,0.2-0.3,0.3l-0.6,1.2c-0.1,0.1-0.1,0.2-0.3,0.3c-0.1,0.1-0.3,0.1-0.4,0.1h-3.6c-0.1,0-0.1,0-0.2,0
						c-0.1,0-0.1-0.1-0.2-0.1c0-0.1-0.1-0.1-0.1-0.2c0-0.1,0-0.2,0.1-0.3L362.7,276.9z M363.9,286h1.9c0.1,0,0.2,0,0.3-0.1
						c0.1-0.1,0.1-0.2,0-0.3c-0.1-0.3-0.3-0.8-0.5-1.2c-0.2-0.5-0.4-0.9-0.5-1.3c-0.1-0.1-0.1-0.2-0.2-0.2c-0.1,0-0.1,0.1-0.2,0.2
						l-1,2.5c-0.1,0.1-0.1,0.2,0,0.3C363.6,285.9,363.7,286,363.9,286"/>
					<path class="st50" d="M384.9,283.8c0.2,0.1,0.4,0.3,0.7,0.5c0.2,0.2,0.4,0.4,0.6,0.7c0.2,0.3,0.3,0.6,0.5,0.9
						c0.1,0.3,0.2,0.7,0.2,1.2c0,0.9-0.1,1.6-0.4,2.2c-0.3,0.6-0.7,1.1-1.2,1.4s-1,0.6-1.7,0.7c-0.6,0.1-1.3,0.2-2,0.2H375
						c-0.1,0-0.3,0-0.4-0.1c-0.1-0.1-0.1-0.2-0.1-0.4v-14.2c0-0.1,0-0.3,0.1-0.4c0.1-0.1,0.2-0.1,0.4-0.1h6.3c0.7,0,1.3,0.1,1.9,0.2
						c0.6,0.1,1.1,0.4,1.6,0.7c0.5,0.3,0.8,0.8,1.1,1.3c0.3,0.5,0.4,1.2,0.4,2c0,0.6-0.2,1.2-0.5,1.6c-0.3,0.5-0.6,0.8-1,1.1
						C384.6,283.5,384.7,283.7,384.9,283.8 M379.1,282.2h1.9c0.3,0,0.5-0.1,0.7-0.3c0.2-0.2,0.3-0.5,0.3-0.7c0-0.2-0.1-0.5-0.3-0.6
						c-0.2-0.2-0.4-0.3-0.6-0.3h-2c-0.1,0-0.3,0-0.4,0.1c-0.1,0.1-0.1,0.2-0.1,0.4v1c0,0.1,0,0.3,0.1,0.4
						C378.9,282.2,379,282.2,379.1,282.2 M381.3,285.6h-2.2c-0.1,0-0.3,0-0.4,0.1c-0.1,0.1-0.1,0.2-0.1,0.4v1.2c0,0.1,0,0.3,0.1,0.4
						c0.1,0.1,0.2,0.1,0.4,0.1h2.3c0.3,0,0.5-0.1,0.7-0.3c0.2-0.2,0.3-0.5,0.3-0.7c0-0.2-0.1-0.5-0.3-0.8
						C382,285.8,381.7,285.6,381.3,285.6"/>
					<path class="st50" d="M400.5,288.3v2.8c0,0.1,0,0.3-0.1,0.4c-0.1,0.1-0.2,0.1-0.4,0.1h-10.4c-0.2,0-0.3,0-0.4-0.1
						c-0.1-0.1-0.1-0.2-0.1-0.4v-14.2c0-0.1,0-0.3,0.1-0.4c0.1-0.1,0.2-0.1,0.4-0.1h3.1c0.1,0,0.3,0,0.4,0.1
						c0.1,0.1,0.1,0.2,0.1,0.4v10.4c0,0.1,0,0.3,0.1,0.4c0.1,0.1,0.2,0.1,0.4,0.1h6.3c0.1,0,0.3,0,0.4,0.1
						C400.4,288.1,400.5,288.2,400.5,288.3"/>
					<path class="st50" d="M406,280.7v0.9c0,0.1,0,0.3,0.1,0.4c0.1,0.1,0.2,0.1,0.4,0.1h5.6c0.1,0,0.3,0,0.4,0.1
						c0.1,0.1,0.1,0.2,0.1,0.4v2.9c0,0.1,0,0.3-0.1,0.4c-0.1,0.1-0.2,0.1-0.4,0.1h-5.6c-0.1,0-0.3,0-0.4,0.1
						c-0.1,0.1-0.1,0.2-0.1,0.4v0.8c0,0.1,0,0.3,0.1,0.4c0.1,0.1,0.2,0.1,0.4,0.1h6.5c0.1,0,0.3,0,0.4,0.1c0.1,0.1,0.1,0.2,0.1,0.4
						v2.9c0,0.1,0,0.3-0.1,0.4c-0.1,0.1-0.2,0.1-0.4,0.1h-10.6c-0.1,0-0.3,0-0.4-0.1c-0.1-0.1-0.1-0.2-0.1-0.4v-14.2
						c0-0.1,0-0.3,0.1-0.4c0.1-0.1,0.2-0.1,0.4-0.1H413c0.1,0,0.3,0,0.4,0.1c0.1,0.1,0.1,0.2,0.1,0.4v2.8c0,0.1,0,0.3-0.1,0.4
						c-0.1,0.1-0.2,0.1-0.4,0.1h-6.5c-0.1,0-0.3,0-0.4,0.1S406,280.6,406,280.7"/>
					<path class="st15" d="M275.7,233.5c0.1,0.6,0.7,1,1.3,0.9c0.1,0,0.2,0,0.2,0c0.7-0.2,1.1-0.8,0.9-1.5l-1.6-6.5l7.3-5.2
						c0.3-0.2,0.5-0.6,0.5-1.1l-0.1-3.3l17-24.7l1-1.1l19.5,17.8l0.3,5.9c0,0.7,0.6,1.2,1.3,1.2l5-0.2c0.7,0,1.2-0.6,1.2-1.3
						l-0.1-2.6l20.9-36.4l7.3-0.3l1.4,31.8c0,0.5,0.3,0.9,0.8,1.1c0.5,0.2,1,0,1.3-0.3l17.1-18.7l31.3,36l0.1,1.3
						c0,0.7,0.6,1.2,1.3,1.2c0.7,0,1.2-0.6,1.2-1.3l-0.3-7.2l3.1-1.8c0.3-0.2,0.6-0.5,0.6-0.9c0-0.4-0.1-0.8-0.4-1l-10.7-9.8
						l-0.5-11.2c0-0.7-0.6-1.2-1.3-1.2l-10.3,0.5c-0.7,0-1.2,0.6-1.2,1.3l0.1,2.8l-12.2-11.2c-0.5-0.5-1.3-0.4-1.8,0.1l-16,17.4
						l-1.3-30c0-0.7-0.6-1.2-1.3-1.2l-32.3,1.4c-0.7,0-1.2,0.6-1.2,1.3l1.7,38l-2.5,0.1l-0.2-5.1c0-0.3-0.2-0.6-0.4-0.9l-20.8-19
						c-0.5-0.4-1.3-0.4-1.8,0.1l-19.4,21.2c-0.2,0.2-0.3,0.6-0.3,0.9l0.4,9l-7.5,5.3c-0.4,0.3-0.6,0.8-0.5,1.3L275.7,233.5z"/>
					<path class="st15" d="M434.7,232.7L434,232c0,0-0.1-0.1-0.1-0.1c0-0.2,0-0.4,0-0.5c-0.1-3-2.5-5.3-5.5-5.3s-5.3,2.5-5.3,5.5
						c0.1,3,2.5,5.3,5.5,5.3c1.9,0,3.5-1,4.5-2.5l0.1,0.1c2.2,1.9,2.4,5.1,0.6,7.3l-4.3,5.1c-0.5-1.7-1.2-3.2-2.2-4.6
						c-1.1-1.6-2.5-2.9-4.2-4c-1.7-1.1-3.5-1.8-5.6-2.2c-2-0.4-4-0.3-6,0.2c-1.9,0.5-3.7,1.3-5.3,2.4c-1.6,1.1-2.9,2.5-4,4.2
						c-1.1,1.7-1.8,3.5-2.2,5.6c-0.4,2-0.3,4,0.2,6c0.5,1.9,1.3,3.7,2.4,5.3c0.7,1,1.6,1.9,2.5,2.8c-2.9-0.4-5.8-0.7-8.9-1l3-26.9
						c0-0.3,0-0.5-0.2-0.7c-0.2-0.2-0.4-0.3-0.6-0.4l-6-0.7c-0.3,0-0.5,0-0.7,0.2c-0.2,0.2-0.3,0.4-0.3,0.6l-3,27.1
						c-1-0.1-2.1-0.2-3.1-0.2c0-0.1-0.1-0.3-0.1-0.4c-0.8-1.2-1.7-2.6-2.8-4c-1-1.5-2-2.9-3-4.3c-0.1-0.2-0.2-0.4-0.1-0.7
						c0.1-0.2,0.2-0.4,0.4-0.6c0.7-0.4,1.3-0.8,1.8-1.4c0.5-0.6,1-1.2,1.4-1.9c0.4-0.7,0.7-1.5,1-2.3c0.2-0.8,0.4-1.7,0.4-2.5
						c0.1-1.5-0.1-3-0.6-4.3c-0.5-1.3-1.1-2.4-2-3.4c-0.9-1-1.9-1.8-3.2-2.4c-1.3-0.6-2.7-0.9-4.2-1l-12.4-0.7
						c-0.3,0-0.5,0.1-0.7,0.2c-0.2,0.2-0.3,0.4-0.3,0.7l-1.4,27.3c0,0.2,0,0.3,0.1,0.5c-0.9,0-1.9,0-2.8,0c0.1-0.2,0-0.4-0.1-0.6
						c-0.9-1.2-1.9-2.4-3.1-3.8c-1.2-1.4-2.2-2.7-3.3-4c-0.2-0.2-0.2-0.4-0.2-0.7c0.1-0.2,0.2-0.4,0.4-0.6c0.6-0.4,1.2-0.9,1.7-1.5
						c0.5-0.6,0.9-1.3,1.3-2c0.4-0.8,0.6-1.6,0.8-2.4c0.2-0.8,0.3-1.7,0.2-2.5c0-1.5-0.3-2.9-0.9-4.2c-0.5-1.3-1.3-2.4-2.2-3.3
						c-0.9-0.9-2.1-1.6-3.4-2.1c-1.3-0.5-2.7-0.7-4.3-0.7l-12.4,0.3c-0.3,0-0.5,0.1-0.7,0.3c-0.2,0.2-0.3,0.4-0.3,0.7l0.6,27.3
						c0,0.1,0,0.1,0,0.1c-0.8,0-1.6,0.1-2.4,0.1c0-0.1,0-0.3-0.1-0.4l-13.4-26.3c-0.1-0.2-0.3-0.4-0.6-0.6c-0.3-0.2-0.5-0.2-0.8-0.2
						l-5.6,0.4c-0.3,0-0.6,0.1-0.8,0.3c-0.2,0.2-0.4,0.4-0.5,0.7l-9.8,27.7c-0.1,0.2-0.1,0.4-0.1,0.6c0,0.1,0,0.1,0.1,0.2
						c-1.3,0.1-2.7,0.3-4,0.5c0,0,0.1,0,0.1-0.1c0.8-0.8,1.4-1.9,1.7-3.1c0.3-1.2,0.4-2.7,0.1-4.4c-0.1-0.8-0.4-1.6-0.7-2.2
						c-0.3-0.6-0.7-1.1-1.2-1.6c-0.4-0.4-0.9-0.8-1.4-1.1c-0.5-0.3-1-0.5-1.4-0.6c-0.6-0.2-0.7-0.5-0.2-0.9c0.6-0.6,1.1-1.4,1.5-2.4
						c0.4-1,0.6-2,0.3-3.2c-0.3-1.5-0.7-2.7-1.5-3.6c-0.7-0.9-1.6-1.6-2.6-2.1c-1-0.5-2.1-0.7-3.3-0.8c-1.2-0.1-2.4,0-3.7,0.2
						l-11.9,2.1c-0.3,0-0.5,0.2-0.6,0.4c-0.2,0.2-0.2,0.5-0.2,0.7l2.6,14.8l-4.6-0.6c-2.6-0.4-4.5-2.7-4.4-5.2
						c2.7-1.8,4-5.1,3.1-8.3l-3.8-13.6c0.8-0.6,1.5-1.5,1.7-2.6c0.6-2.4-0.9-4.8-3.3-5.4c-2.4-0.6-4.8,0.9-5.4,3.3
						c-0.6,2.4,0.9,4.8,3.3,5.4c0.5,0.1,1,0.1,1.5,0.1l3.8,13.4c0.4,1.3,0.2,2.7-0.5,3.9c-0.7,1.2-1.8,2.1-3.1,2.4l-0.9,0.3
						c-1.3,0.4-2.7,0.2-3.9-0.5c-1.2-0.7-2.1-1.8-2.4-3.1l-3.8-13.6c0.8-0.6,1.4-1.5,1.7-2.6c0.6-2.4-0.9-4.8-3.3-5.4
						c-2.4-0.6-4.8,0.9-5.4,3.3c-0.6,2.4,0.9,4.8,3.3,5.4c0.5,0.1,1,0.1,1.5,0.1l3.7,13.4c0.5,1.9,1.8,3.6,3.6,4.5
						c0.6,0.3,1.3,0.6,1.9,0.8c1.2,0.3,2.5,0.3,3.8-0.1l0.7-0.2c0.4,3.3,3,6.1,6.4,6.6l5.3,0.7l1.5,8.4c-3.7,0.7-7.2,1.5-10.5,2.3
						h173.1c-4.5-1.1-9.3-2.1-14.5-3.1c0.9-0.4,1.8-0.9,2.6-1.5c1.6-1.1,2.9-2.5,4-4.2c1.1-1.7,1.8-3.5,2.2-5.6
						c0.2-1.3,0.3-2.5,0.2-3.7l5.6-6.5C438.2,240.1,437.9,235.4,434.7,232.7 M285.8,254.5c0.5,0.4,0.8,0.9,0.9,1.3
						c0.1,0.5,0,1-0.4,1.5c-0.4,0.5-0.8,0.7-1.2,0.8l-4.4,0.8c-0.3,0-0.5,0-0.7-0.2c-0.2-0.2-0.3-0.4-0.4-0.6l-0.4-2.2
						c0-0.3,0-0.5,0.2-0.7c0.2-0.2,0.4-0.3,0.6-0.4l4.1-0.7C284.7,254,285.3,254.1,285.8,254.5 M277.5,245c0.2-0.2,0.4-0.3,0.6-0.4
						l3.7-0.7c0.3-0.1,0.7,0,1.2,0.3c0.4,0.3,0.7,0.6,0.8,1.1c0.1,0.5,0,1-0.2,1.4c-0.2,0.5-0.6,0.7-1.2,0.8l-3.7,0.6
						c-0.3,0-0.5,0-0.7-0.2c-0.2-0.2-0.3-0.4-0.4-0.6l-0.3-1.8C277.3,245.5,277.3,245.2,277.5,245 M368.4,239.4
						c0-0.3,0.1-0.5,0.3-0.7c0.2-0.2,0.4-0.3,0.7-0.2l4.2,0.2c0.6,0,1,0.2,1.4,0.4c0.4,0.2,0.7,0.5,0.9,0.9c0.2,0.3,0.3,0.7,0.4,1.1
						c0.1,0.4,0.1,0.7,0.1,0.9c0,0.5-0.1,0.9-0.3,1.3c-0.2,0.4-0.5,0.7-0.8,0.9c-0.3,0.2-0.6,0.4-1,0.5c-0.3,0.1-0.7,0.1-1,0.1
						l-4.2-0.2c-0.3,0-0.5-0.1-0.7-0.3c-0.2-0.2-0.3-0.4-0.2-0.7L368.4,239.4z M367.4,259.3l0.3-6.5c0-0.3,0.1-0.5,0.3-0.7
						c0.2-0.2,0.4-0.3,0.7-0.2l0.9,0c0.3,0,0.5,0.1,0.8,0.3c0.3,0.2,0.5,0.4,0.6,0.6c0.8,1.2,1.5,2.4,2.3,3.6
						c0.8,1.2,1.5,2.3,2.3,3.5c-2.8-0.1-5.5-0.3-8.4-0.4C367.4,259.5,367.4,259.4,367.4,259.3 M338.7,238.6c0.2-0.2,0.4-0.3,0.7-0.3
						l4.2-0.1c0.6,0,1,0.1,1.4,0.3c0.4,0.2,0.7,0.5,0.9,0.8c0.2,0.3,0.4,0.7,0.5,1c0.1,0.4,0.2,0.7,0.2,0.9c0,0.5-0.1,0.9-0.2,1.3
						c-0.2,0.4-0.4,0.7-0.7,1c-0.3,0.3-0.6,0.5-0.9,0.6c-0.3,0.1-0.7,0.2-1,0.2l-4.2,0.1c-0.3,0-0.5-0.1-0.7-0.3
						c-0.2-0.2-0.3-0.4-0.3-0.7l-0.1-4.2C338.4,239,338.5,238.8,338.7,238.6 M338.7,252.8c0-0.3,0.1-0.5,0.3-0.7
						c0.2-0.2,0.4-0.3,0.7-0.3l0.9,0c0.3,0,0.5,0.1,0.8,0.2c0.3,0.1,0.5,0.3,0.7,0.5c0.8,1.2,1.7,2.3,2.6,3.4
						c0.9,1.1,1.7,2.2,2.6,3.3c0,0,0,0,0,0c-2.8,0-5.6,0-8.4,0.1c0,0,0-0.1,0-0.1L338.7,252.8z M309.7,249.8l1.7-5
						c0.1-0.2,0.2-0.4,0.3-0.4c0.1,0,0.3,0.1,0.4,0.3c0.4,0.7,0.8,1.6,1.2,2.4c0.4,0.9,0.8,1.6,1.1,2.3c0.1,0.2,0.2,0.4,0.1,0.6
						c-0.1,0.2-0.3,0.3-0.6,0.3l-3.5,0.2c-0.3,0-0.5-0.1-0.6-0.2C309.7,250.2,309.7,250,309.7,249.8 M306.1,261l1-2.5
						c0.1-0.2,0.3-0.5,0.5-0.7c0.2-0.2,0.5-0.3,0.8-0.3l8.4-0.5c0.3,0,0.5,0.1,0.8,0.2c0.3,0.2,0.5,0.3,0.6,0.6l1.2,2.3
						C314.9,260.4,310.4,260.7,306.1,261C306.1,261,306.1,261,306.1,261 M422,252.2c-0.2,1-0.5,1.9-1,2.7c-0.5,0.8-1.2,1.5-1.9,2.1
						c-0.8,0.6-1.6,1-2.6,1.2c-0.9,0.3-1.9,0.3-2.9,0.1c-1-0.2-1.9-0.5-2.6-1.1c-0.8-0.6-1.5-1.2-2-2c-0.5-0.8-0.9-1.7-1.1-2.6
						c-0.2-1-0.2-1.9-0.1-2.9c0.2-1,0.5-1.9,1-2.7c0.5-0.8,1.2-1.5,1.9-2.1c0.8-0.6,1.6-1,2.5-1.2c0.9-0.3,1.9-0.3,2.9-0.1
						c1,0.2,1.9,0.5,2.6,1.1c0.8,0.6,1.5,1.2,2,2c0.5,0.8,0.9,1.7,1.1,2.6C422.1,250.3,422.2,251.2,422,252.2"/>
					<path class="st51" d="M306.8,328.5c10.8-2.5,25.9-4.1,42.5-4.1c16.7,0,31.7,1.6,42.5,4.1C391.9,328.5,343.6,323.7,306.8,328.5"
						/>
					<path class="st15" d="M296,319h0.5c0.2,0,0.3-0.1,0.3-0.3l0.6-8h1.4l2.2,5c0.2,0.5,0.5,1.2,0.5,1.2h0c0,0,0.2-0.7,0.5-1.2
						l2.2-5h1.4l0.6,8c0,0.2,0.1,0.3,0.3,0.3h0.4v1.2h-1.2c-0.6,0-0.8-0.3-0.9-0.9l-0.4-5c0-0.6,0-1.4,0-1.4h0c0,0-0.3,0.9-0.5,1.4
						l-1.9,4.1h-1.1l-1.9-4.1c-0.2-0.5-0.5-1.4-0.5-1.4h0c0,0,0,0.8,0,1.4l-0.4,5c0,0.6-0.3,0.9-0.9,0.9H296V319z"/>
					<path class="st15" d="M311.1,313.2c1.9,0,2.9,1.4,2.9,3.2c0,0.2,0,0.5,0,0.5H309c0.1,1.4,1.1,2.3,2.3,2.3c1.2,0,2-0.8,2-0.8
						l0.6,0.9c0,0-1,1-2.6,1c-2.1,0-3.6-1.5-3.6-3.5C307.7,314.6,309.1,313.2,311.1,313.2 M312.6,316c0-1.1-0.7-1.7-1.6-1.7
						c-1,0-1.8,0.6-2,1.7H312.6z"/>
					<path class="st15" d="M318.1,313.2c1.6,0,2.1,1,2.1,1h0c0,0,0-0.2,0-0.5v-1.7c0-0.2-0.1-0.3-0.3-0.3h-0.5v-1.1h1.3
						c0.6,0,0.9,0.3,0.9,0.9v7.2c0,0.2,0.1,0.3,0.3,0.3h0.5v1.1h-1.2c-0.6,0-0.8-0.3-0.8-0.7c0-0.2,0-0.3,0-0.3h0
						c0,0-0.6,1.2-2.2,1.2c-1.8,0-3-1.4-3-3.5C315.1,314.6,316.3,313.2,318.1,313.2 M320.3,316.7c0-1.2-0.6-2.4-1.9-2.4
						c-1.1,0-1.9,0.9-1.9,2.4c0,1.5,0.8,2.4,1.9,2.4C319.3,319.2,320.3,318.5,320.3,316.7"/>
					<path class="st15" d="M326.5,313.2c1.9,0,2.9,1.4,2.9,3.2c0,0.2,0,0.5,0,0.5h-4.9c0.1,1.4,1.1,2.3,2.3,2.3c1.2,0,2-0.8,2-0.8
						l0.6,0.9c0,0-1,1-2.6,1c-2.1,0-3.6-1.5-3.6-3.5C323.1,314.6,324.6,313.2,326.5,313.2 M328.1,316c0-1.1-0.7-1.7-1.6-1.7
						c-1,0-1.8,0.6-2,1.7H328.1z"/>
					<path class="st15" d="M331.2,312.1c0-0.2-0.1-0.3-0.3-0.3h-0.5v-1.1h1.3c0.6,0,0.9,0.3,0.9,0.9v7.2c0,0.2,0.1,0.3,0.3,0.3h0.5
						v1.1H332c-0.6,0-0.9-0.3-0.9-0.9V312.1z"/>
					<path class="st15" d="M334.7,312.1c0-0.2-0.1-0.3-0.3-0.3h-0.5v-1.1h1.3c0.6,0,0.9,0.3,0.9,0.9v7.2c0,0.2,0.1,0.3,0.3,0.3h0.5
						v1.1h-1.3c-0.6,0-0.9-0.3-0.9-0.9V312.1z"/>
					<path class="st15" d="M338.4,314.8c0-0.2-0.1-0.3-0.3-0.3h-0.5v-1.1h1.3c0.6,0,0.9,0.3,0.9,0.9v4.5c0,0.2,0.1,0.3,0.3,0.3h0.5
						v1.1h-1.3c-0.6,0-0.9-0.3-0.9-0.9V314.8z M339.4,310.7h1.3l-1.3,1.7h-1L339.4,310.7z"/>
					<path class="st15" d="M342.1,314.8c0-0.2-0.1-0.3-0.3-0.3h-0.5v-1.1h1.2c0.6,0,0.9,0.3,0.9,0.7v0.3c0,0.2,0,0.4,0,0.4h0
						c0.3-0.6,1.1-1.6,2.5-1.6c1.6,0,2.3,0.9,2.3,2.6v2.9c0,0.2,0.1,0.3,0.3,0.3h0.5v1.1h-1.3c-0.6,0-0.9-0.3-0.9-0.9v-3.2
						c0-1-0.2-1.7-1.3-1.7c-1,0-1.9,0.7-2.1,1.7c-0.1,0.3-0.1,0.6-0.1,0.9v3.2h-1.3V314.8z"/>
					<path class="st15" d="M354.1,314.4h-0.9v-1h0.9v-1.9h1.3v1.9h1.6v1h-1.6v3.1c0,1.4,0.9,1.5,1.4,1.5c0.2,0,0.3,0,0.3,0v1.2
						c0,0-0.2,0-0.5,0c-0.9,0-2.6-0.3-2.6-2.5V314.4z"/>
					<path class="st15" d="M361.4,313.2c1.9,0,2.9,1.4,2.9,3.2c0,0.2,0,0.5,0,0.5h-4.9c0.1,1.4,1.1,2.3,2.3,2.3c1.2,0,2-0.8,2-0.8
						l0.6,0.9c0,0-1,1-2.6,1c-2.1,0-3.6-1.5-3.6-3.5C358,314.6,359.4,313.2,361.4,313.2 M363,316c0-1.1-0.7-1.7-1.6-1.7
						c-1,0-1.8,0.6-2,1.7H363z"/>
					<path class="st15" d="M372.6,313.2c0.8,0,2.4,0.3,2.4,1.5v0.7h-1.2V315c0-0.5-0.8-0.7-1.3-0.7c-1.3,0-2.3,1-2.3,2.4
						c0,1.5,1.1,2.4,2.4,2.4c1.3,0,2.1-0.9,2.1-0.9l0.6,0.9c0,0-1,1.2-2.8,1.2c-2.1,0-3.6-1.5-3.6-3.5
						C369,314.7,370.4,313.2,372.6,313.2"/>
					<path class="st15" d="M376.7,314.8c0-0.2-0.1-0.3-0.3-0.3h-0.5v-1.1h1.3c0.6,0,0.9,0.3,0.9,0.8v3.2c0,0.9,0.2,1.7,1.3,1.7
						c1.4,0,2.2-1.2,2.2-2.6v-3.2h1.3v5.4c0,0.2,0.1,0.3,0.3,0.3h0.5v1.1h-1.2c-0.6,0-0.9-0.3-0.9-0.7v-0.3c0-0.2,0-0.4,0-0.4h0
						c-0.3,0.7-1.2,1.6-2.5,1.6c-1.5,0-2.3-0.8-2.3-2.6V314.8z"/>
					<path class="st15" d="M385.1,314.8c0-0.2-0.1-0.3-0.3-0.3h-0.5v-1.1h1.3c0.6,0,0.9,0.3,0.9,0.9v4.5c0,0.2,0.1,0.3,0.3,0.3h0.5
						v1.1H386c-0.6,0-0.9-0.3-0.9-0.9V314.8z M385.2,310.7h1.2v1.4h-1.2V310.7z"/>
					<path class="st15" d="M391.2,313.2c1.6,0,2.1,1,2.1,1h0c0,0,0-0.2,0-0.5v-1.7c0-0.2-0.1-0.3-0.3-0.3h-0.5v-1.1h1.3
						c0.6,0,0.9,0.3,0.9,0.9v7.2c0,0.2,0.1,0.3,0.3,0.3h0.5v1.1h-1.2c-0.6,0-0.8-0.3-0.8-0.7c0-0.2,0-0.3,0-0.3h0
						c0,0-0.6,1.2-2.2,1.2c-1.8,0-3-1.4-3-3.5C388.1,314.6,389.4,313.2,391.2,313.2 M393.3,316.7c0-1.2-0.6-2.4-1.9-2.4
						c-1.1,0-1.9,0.9-1.9,2.4c0,1.5,0.8,2.4,1.9,2.4C392.3,319.2,393.3,318.5,393.3,316.7"/>
					<path class="st15" d="M400.3,315.9h0.3v-0.1c0-1.2-0.4-1.6-1.5-1.6c-0.3,0-1.1,0.1-1.1,0.5v0.4h-1.2v-0.7
						c0-1.1,1.7-1.3,2.3-1.3c2.2,0,2.8,1.2,2.8,2.6v2.9c0,0.2,0.1,0.3,0.3,0.3h0.5v1.1h-1.2c-0.6,0-0.8-0.3-0.8-0.8
						c0-0.2,0-0.4,0-0.4h0c0,0-0.5,1.3-2.2,1.3c-1.2,0-2.3-0.7-2.3-2.1C396.2,316,399.1,315.9,400.3,315.9 M398.8,319.2
						c1.1,0,1.8-1.2,1.8-2.2v-0.2h-0.3c-1,0-2.7,0.1-2.7,1.3C397.5,318.7,397.9,319.2,398.8,319.2"/>
				</g>
			</g>
		</g>
	</g>
</g>
</svg>
